<svg xmlns="http://www.w3.org/2000/svg" viewBox="0 0 600 600" fill="none" stroke-linejoin="round">
  <path d="M590.0 300.0L590.0 299.9L589.9 299.8L589.8 299.7L589.7 299.6L589.5 299.4L589.3 299.3L589.0 299.2L588.7 299.1L588.4 299.1L588.0 299.0L587.6 298.9L587.1 298.8L586.7 298.8L586.1 298.7L585.6 298.7L585.0 298.6L584.3 298.6L583.6 298.6L582.9 298.6L582.2 298.6L581.4 298.7L580.5 298.7L579.7 298.8L578.8 298.8L577.8 298.9L576.9 299.0L575.9 299.2L574.8 299.3L573.8 299.5L572.7 299.6L571.5 299.8L570.4 300.0L569.2 300.3L567.9 300.5L566.7 300.8L565.4 301.1L564.1 301.4L562.7 301.8L561.3 302.2L559.9 302.5L558.5 303.0L557.0 303.4L555.6 303.9L554.1 304.4L552.5 304.9L551.0 305.4L549.4 306.0L547.8 306.6L546.2 307.2L544.5 307.8L542.9 308.5L541.2 309.2L539.5 309.9L537.7 310.7L536.0 311.5L534.2 312.3L532.5 313.1L530.7 314.0L528.9 314.9L527.1 315.9L525.2 316.8L523.4 317.8L521.5 318.8L519.6 319.9L517.8 320.9L515.9 322.1L514.0 323.2L512.1 324.4L510.2 325.6L508.2 326.8L506.3 328.0L504.4 329.3L502.5 330.6L500.5 332.0L498.6 333.3L496.6 334.7L494.7 336.2L492.7 337.6L490.8 339.1L488.8 340.6L486.9 342.2L485.0 343.7L483.0 345.3L481.1 347.0L479.2 348.6L477.2 350.3L475.3 352.0L473.4 353.7L471.5 355.5L469.6 357.3L467.7 359.1L465.8 360.9L464.0 362.8L462.1 364.7L460.3 366.6L458.4 368.5L456.6 370.4L454.8 372.4L453.0 374.4L451.2 376.4L449.4 378.4L447.7 380.5L446.0 382.6L444.2 384.7L442.5 386.8L440.8 388.9L439.2 391.0L437.5 393.2L435.9 395.4L434.3 397.6L432.7 399.8L431.1 402.0L429.6 404.2L428.1 406.5L426.6 408.7L425.1 411.0L423.6 413.3L422.2 415.6L420.8 417.9L419.4 420.2L418.0 422.5L416.7 424.8L415.4 427.2L414.1 429.5L412.8 431.8L411.6 434.2L410.4 436.5L409.2 438.9L408.0 441.2L406.9 443.6L405.8 446.0L404.7 448.3L403.6 450.7L402.6 453.0L401.6 455.4L400.6 457.7L399.7 460.1L398.8 462.4L397.9 464.7L397.0 467.0L396.2 469.4L395.4 471.7L394.6 474.0L393.8 476.3L393.1 478.5L392.4 480.8L391.7 483.1L391.0 485.3L390.4 487.6L389.8 489.8L389.2 492.0L388.7 494.2L388.2 496.3L387.7 498.5L387.2 500.6L386.8 502.8L386.4 504.9L386.0 506.9L385.6 509.0L385.2 511.0L384.9 513.1L384.6 515.1L384.3 517.0L384.1 519.0L383.9 520.9L383.6 522.8L383.5 524.7L383.3 526.5L383.1 528.3L383.0 530.1L382.9 531.9L382.8 533.6L382.7 535.3L382.7 537.0L382.7 538.7L382.6 540.3L382.6 541.9L382.7 543.4L382.7 544.9L382.7 546.4L382.8 547.9L382.9 549.3L383.0 550.7L383.1 552.0L383.2 553.4L383.3 554.6L383.4 555.9L383.6 557.1L383.7 558.3L383.9 559.4L384.1 560.5L384.3 561.6L384.4 562.6L384.6 563.6L384.8 564.6L385.0 565.5L385.2 566.4L385.5 567.2L385.7 568.0L385.9 568.8L386.1 569.5L386.3 570.2L386.5 570.8L386.8 571.4L387.0 572.0L387.2 572.5L387.4 573.0L387.6 573.5L387.8 573.9L388.0 574.2L388.2 574.6L388.4 574.9L388.6 575.1L388.8 575.3L388.9 575.5L389.1 575.6L389.2 575.7L389.4 575.8L389.5 575.8L389.6 575.8L389.7 575.8L389.8 575.7L389.9 575.5L389.9 575.4L390.0 575.2L390.0 574.9L390.0 574.6L390.0 574.3L390.0 574.0L390.0 573.6L389.9 573.2L389.8 572.7L389.8 572.2L389.6 571.7L389.5 571.2L389.3 570.6L389.2 570.0L389.0 569.3L388.7 568.6L388.5 567.9L388.2 567.2L387.9 566.4L387.6 565.6L387.2 564.8L386.9 563.9L386.5 563.0L386.0 562.1L385.6 561.2L385.1 560.2L384.6 559.2L384.1 558.2L383.5 557.1L382.9 556.1L382.3 555.0L381.6 553.9L380.9 552.7L380.2 551.6L379.5 550.4L378.7 549.2L377.9 548.0L377.1 546.8L376.2 545.5L375.3 544.3L374.4 543.0L373.4 541.7L372.4 540.4L371.4 539.0L370.3 537.7L369.2 536.3L368.1 535.0L367.0 533.6L365.8 532.2L364.5 530.8L363.3 529.4L362.0 528.0L360.7 526.6L359.3 525.2L357.9 523.7L356.5 522.3L355.1 520.8L353.6 519.4L352.1 517.9L350.6 516.5L349.0 515.0L347.4 513.6L345.7 512.1L344.1 510.7L342.4 509.2L340.6 507.8L338.9 506.3L337.1 504.9L335.3 503.4L333.4 502.0L331.6 500.6L329.6 499.2L327.7 497.7L325.8 496.3L323.8 494.9L321.8 493.5L319.7 492.2L317.6 490.8L315.5 489.4L313.4 488.1L311.3 486.7L309.1 485.4L306.9 484.1L304.7 482.8L302.5 481.5L300.2 480.3L297.9 479.0L295.6 477.8L293.3 476.5L291.0 475.3L288.6 474.1L286.2 473.0L283.8 471.8L281.4 470.7L279.0 469.6L276.5 468.5L274.1 467.4L271.6 466.4L269.1 465.3L266.6 464.3L264.1 463.3L261.5 462.4L259.0 461.4L256.4 460.5L253.9 459.6L251.3 458.7L248.7 457.9L246.1 457.0L243.5 456.2L240.9 455.5L238.3 454.7L235.7 454.0L233.1 453.3L230.5 452.6L227.8 451.9L225.2 451.3L222.6 450.7L220.0 450.1L217.3 449.6L214.7 449.0L212.1 448.5L209.5 448.0L206.9 447.6L204.3 447.2L201.6 446.8L199.1 446.4L196.5 446.0L193.9 445.7L191.3 445.4L188.7 445.1L186.2 444.9L183.6 444.6L181.1 444.4L178.6 444.3L176.1 444.1L173.6 444.0L171.1 443.9L168.6 443.8L166.2 443.7L163.8 443.7L161.3 443.7L159.0 443.7L156.6 443.7L154.2 443.8L151.9 443.9L149.6 444.0L147.3 444.1L145.0 444.2L142.7 444.4L140.5 444.5L138.3 444.7L136.1 444.9L134.0 445.2L131.9 445.4L129.8 445.7L127.7 446.0L125.6 446.3L123.6 446.6L121.6 446.9L119.7 447.3L117.7 447.6L115.8 448.0L114.0 448.4L112.1 448.8L110.3 449.2L108.5 449.6L106.8 450.1L105.1 450.5L103.4 451.0L101.8 451.4L100.1 451.9L98.6 452.4L97.0 452.9L95.5 453.3L94.0 453.8L92.6 454.3L91.2 454.8L89.8 455.4L88.5 455.9L87.2 456.4L86.0 456.9L84.7 457.4L83.6 457.9L82.4 458.4L81.3 458.9L80.2 459.5L79.2 460.0L78.2 460.5L77.2 461.0L76.3 461.5L75.4 462.0L74.6 462.4L73.8 462.9L73.0 463.4L72.3 463.8L71.6 464.3L70.9 464.7L70.3 465.2L69.7 465.6L69.2 466.0L68.7 466.4L68.2 466.8L67.8 467.1L67.4 467.5L67.0 467.8L66.7 468.2L66.4 468.5L66.1 468.7L65.9 469.0L65.7 469.3L65.6 469.5L65.5 469.7L65.4 469.9L65.3 470.1L65.3 470.2L65.3 470.4L65.4 470.5L65.5 470.5L65.6 470.6L65.7 470.6L65.9 470.6L66.1 470.6L66.4 470.6L66.6 470.5L66.9 470.4L67.2 470.3L67.6 470.1L68.0 469.9L68.4 469.7L68.8 469.5L69.3 469.2L69.8 468.9L70.3 468.6L70.8 468.2L71.4 467.8L71.9 467.4L72.5 466.9L73.2 466.5L73.8 465.9L74.5 465.4L75.2 464.8L75.9 464.2L76.6 463.5L77.3 462.8L78.1 462.1L78.8 461.4L79.6 460.6L80.4 459.7L81.3 458.9L82.1 458.0L82.9 457.0L83.8 456.1L84.6 455.1L85.5 454.0L86.4 453.0L87.3 451.9L88.2 450.7L89.1 449.6L90.0 448.3L91.0 447.1L91.9 445.8L92.8 444.5L93.8 443.1L94.7 441.8L95.7 440.3L96.6 438.9L97.6 437.4L98.5 435.9L99.5 434.3L100.4 432.7L101.4 431.1L102.3 429.4L103.3 427.7L104.2 426.0L105.1 424.2L106.1 422.5L107.0 420.6L107.9 418.8L108.8 416.9L109.7 415.0L110.6 413.0L111.5 411.1L112.4 409.0L113.3 407.0L114.1 405.0L115.0 402.9L115.8 400.7L116.6 398.6L117.4 396.4L118.2 394.2L119.0 392.0L119.8 389.7L120.5 387.5L121.2 385.2L122.0 382.8L122.7 380.5L123.3 378.1L124.0 375.7L124.6 373.3L125.3 370.9L125.9 368.4L126.5 366.0L127.0 363.5L127.6 361.0L128.1 358.4L128.6 355.9L129.1 353.3L129.6 350.8L130.0 348.2L130.5 345.6L130.9 343.0L131.2 340.3L131.6 337.7L131.9 335.1L132.2 332.4L132.5 329.7L132.8 327.1L133.0 324.4L133.2 321.7L133.4 319.0L133.6 316.3L133.7 313.6L133.8 310.9L133.9 308.2L134.0 305.4L134.0 302.7L134.0 300.0L134.0 297.3L134.0 294.6L133.9 291.8L133.8 289.1L133.7 286.4L133.6 283.7L133.4 281.0L133.2 278.3L133.0 275.6L132.8 272.9L132.5 270.3L132.2 267.6L131.9 264.9L131.6 262.3L131.2 259.7L130.9 257.0L130.5 254.4L130.0 251.8L129.6 249.2L129.1 246.7L128.6 244.1L128.1 241.6L127.6 239.0L127.0 236.5L126.5 234.0L125.9 231.6L125.3 229.1L124.6 226.7L124.0 224.3L123.3 221.9L122.7 219.5L122.0 217.2L121.2 214.8L120.5 212.5L119.8 210.3L119.0 208.0L118.2 205.8L117.4 203.6L116.6 201.4L115.8 199.3L115.0 197.1L114.1 195.0L113.3 193.0L112.4 191.0L111.5 188.9L110.6 187.0L109.7 185.0L108.8 183.1L107.9 181.2L107.0 179.4L106.1 177.5L105.1 175.8L104.2 174.0L103.3 172.3L102.3 170.6L101.4 168.9L100.4 167.3L99.5 165.7L98.5 164.1L97.6 162.6L96.6 161.1L95.7 159.7L94.7 158.2L93.8 156.9L92.8 155.5L91.9 154.2L91.0 152.9L90.0 151.7L89.1 150.4L88.2 149.3L87.3 148.1L86.4 147.0L85.5 146.0L84.6 144.9L83.8 143.9L82.9 143.0L82.1 142.0L81.3 141.1L80.4 140.3L79.6 139.4L78.8 138.6L78.1 137.9L77.3 137.2L76.6 136.5L75.9 135.8L75.2 135.2L74.5 134.6L73.8 134.1L73.2 133.5L72.5 133.1L71.9 132.6L71.4 132.2L70.8 131.8L70.3 131.4L69.8 131.1L69.3 130.8L68.8 130.5L68.4 130.3L68.0 130.1L67.6 129.9L67.2 129.7L66.9 129.6L66.6 129.5L66.4 129.4L66.1 129.4L65.9 129.4L65.7 129.4L65.6 129.4L65.5 129.5L65.4 129.5L65.3 129.6L65.3 129.8L65.3 129.9L65.4 130.1L65.5 130.3L65.6 130.5L65.7 130.7L65.9 131.0L66.1 131.3L66.4 131.5L66.7 131.8L67.0 132.2L67.4 132.5L67.8 132.9L68.2 133.2L68.7 133.6L69.2 134.0L69.7 134.4L70.3 134.8L70.9 135.3L71.6 135.7L72.3 136.2L73.0 136.6L73.8 137.1L74.6 137.6L75.4 138.0L76.3 138.5L77.2 139.0L78.2 139.5L79.2 140.0L80.2 140.5L81.3 141.1L82.4 141.6L83.6 142.1L84.7 142.6L86.0 143.1L87.2 143.6L88.5 144.1L89.8 144.6L91.2 145.2L92.6 145.7L94.0 146.2L95.5 146.7L97.0 147.1L98.6 147.6L100.1 148.1L101.8 148.6L103.4 149.0L105.1 149.5L106.8 149.9L108.5 150.4L110.3 150.8L112.1 151.2L114.0 151.6L115.8 152.0L117.7 152.4L119.7 152.7L121.6 153.1L123.6 153.4L125.6 153.7L127.7 154.0L129.8 154.3L131.9 154.6L134.0 154.8L136.1 155.1L138.3 155.3L140.5 155.5L142.7 155.6L145.0 155.8L147.3 155.9L149.6 156.0L151.9 156.1L154.2 156.2L156.6 156.3L159.0 156.3L161.3 156.3L163.8 156.3L166.2 156.3L168.6 156.2L171.1 156.1L173.6 156.0L176.1 155.9L178.6 155.7L181.1 155.6L183.6 155.4L186.2 155.1L188.7 154.9L191.3 154.6L193.9 154.3L196.5 154.0L199.1 153.6L201.6 153.2L204.3 152.8L206.9 152.4L209.5 152.0L212.1 151.5L214.7 151.0L217.3 150.4L220.0 149.9L222.6 149.3L225.2 148.7L227.8 148.1L230.5 147.4L233.1 146.7L235.7 146.0L238.3 145.3L240.9 144.5L243.5 143.8L246.1 143.0L248.7 142.1L251.3 141.3L253.9 140.4L256.4 139.5L259.0 138.6L261.5 137.6L264.1 136.7L266.6 135.7L269.1 134.7L271.6 133.6L274.1 132.6L276.5 131.5L279.0 130.4L281.4 129.3L283.8 128.2L286.2 127.0L288.6 125.9L291.0 124.7L293.3 123.5L295.6 122.2L297.9 121.0L300.2 119.7L302.5 118.5L304.7 117.2L306.9 115.9L309.1 114.6L311.3 113.3L313.4 111.9L315.5 110.6L317.6 109.2L319.7 107.8L321.8 106.5L323.8 105.1L325.8 103.7L327.7 102.3L329.6 100.8L331.6 99.4L333.4 98.0L335.3 96.6L337.1 95.1L338.9 93.7L340.6 92.2L342.4 90.8L344.1 89.3L345.7 87.9L347.4 86.4L349.0 85.0L350.6 83.5L352.1 82.1L353.6 80.6L355.1 79.2L356.5 77.7L357.9 76.3L359.3 74.8L360.7 73.4L362.0 72.0L363.3 70.6L364.5 69.2L365.8 67.8L367.0 66.4L368.1 65.0L369.2 63.7L370.3 62.3L371.4 61.0L372.4 59.6L373.4 58.3L374.4 57.0L375.3 55.7L376.2 54.5L377.1 53.2L377.9 52.0L378.7 50.8L379.5 49.6L380.2 48.4L380.9 47.3L381.6 46.1L382.3 45.0L382.9 43.9L383.5 42.9L384.1 41.8L384.6 40.8L385.1 39.8L385.6 38.8L386.0 37.9L386.5 37.0L386.9 36.1L387.2 35.2L387.6 34.4L387.9 33.6L388.2 32.8L388.5 32.1L388.7 31.4L389.0 30.7L389.2 30.0L389.3 29.4L389.5 28.8L389.6 28.3L389.8 27.8L389.8 27.3L389.9 26.8L390.0 26.4L390.0 26.0L390.0 25.7L390.0 25.4L390.0 25.1L390.0 24.8L389.9 24.6L389.9 24.5L389.8 24.3L389.7 24.2L389.6 24.2L389.5 24.2L389.4 24.2L389.2 24.3L389.1 24.4L388.9 24.5L388.8 24.7L388.6 24.9L388.4 25.1L388.2 25.4L388.0 25.8L387.8 26.1L387.6 26.5L387.4 27.0L387.2 27.5L387.0 28.0L386.8 28.6L386.5 29.2L386.3 29.8L386.1 30.5L385.9 31.2L385.7 32.0L385.5 32.8L385.2 33.6L385.0 34.5L384.8 35.4L384.6 36.4L384.4 37.4L384.3 38.4L384.1 39.5L383.9 40.6L383.7 41.7L383.6 42.9L383.4 44.1L383.3 45.4L383.2 46.6L383.1 48.0L383.0 49.3L382.9 50.7L382.8 52.1L382.7 53.6L382.7 55.1L382.7 56.6L382.6 58.1L382.6 59.7L382.7 61.3L382.7 63.0L382.7 64.7L382.8 66.4L382.9 68.1L383.0 69.9L383.1 71.7L383.3 73.5L383.5 75.3L383.6 77.2L383.9 79.1L384.1 81.0L384.3 83.0L384.6 84.9L384.9 86.9L385.2 89.0L385.6 91.0L386.0 93.1L386.4 95.1L386.8 97.2L387.2 99.4L387.7 101.5L388.2 103.7L388.7 105.8L389.2 108.0L389.8 110.2L390.4 112.4L391.0 114.7L391.7 116.9L392.4 119.2L393.1 121.5L393.8 123.7L394.6 126.0L395.4 128.3L396.2 130.6L397.0 133.0L397.9 135.3L398.8 137.6L399.7 139.9L400.6 142.3L401.6 144.6L402.6 147.0L403.6 149.3L404.7 151.7L405.8 154.0L406.9 156.4L408.0 158.8L409.2 161.1L410.4 163.5L411.6 165.8L412.8 168.2L414.1 170.5L415.4 172.8L416.7 175.2L418.0 177.5L419.4 179.8L420.8 182.1L422.2 184.4L423.6 186.7L425.1 189.0L426.6 191.3L428.1 193.5L429.6 195.8L431.1 198.0L432.7 200.2L434.3 202.4L435.9 204.6L437.5 206.8L439.2 209.0L440.8 211.1L442.5 213.2L444.2 215.3L446.0 217.4L447.7 219.5L449.4 221.6L451.2 223.6L453.0 225.6L454.8 227.6L456.6 229.6L458.4 231.5L460.3 233.4L462.1 235.3L464.0 237.2L465.8 239.1L467.7 240.9L469.6 242.7L471.5 244.5L473.4 246.3L475.3 248.0L477.2 249.7L479.2 251.4L481.1 253.0L483.0 254.7L485.0 256.3L486.9 257.8L488.8 259.4L490.8 260.9L492.7 262.4L494.7 263.8L496.6 265.3L498.6 266.7L500.5 268.0L502.5 269.4L504.4 270.7L506.3 272.0L508.2 273.2L510.2 274.4L512.1 275.6L514.0 276.8L515.9 277.9L517.8 279.1L519.6 280.1L521.5 281.2L523.4 282.2L525.2 283.2L527.1 284.1L528.9 285.1L530.7 286.0L532.5 286.9L534.2 287.7L536.0 288.5L537.7 289.3L539.5 290.1L541.2 290.8L542.9 291.5L544.5 292.2L546.2 292.8L547.8 293.4L549.4 294.0L551.0 294.6L552.5 295.1L554.1 295.6L555.6 296.1L557.0 296.6L558.5 297.0L559.9 297.5L561.3 297.8L562.7 298.2L564.1 298.6L565.4 298.9L566.7 299.2L567.9 299.5L569.2 299.7L570.4 300.0L571.5 300.2L572.7 300.4L573.8 300.5L574.8 300.7L575.9 300.8L576.9 301.0L577.8 301.1L578.8 301.2L579.7 301.2L580.5 301.3L581.4 301.3L582.2 301.4L582.9 301.4L583.6 301.4L584.3 301.4L585.0 301.4L585.6 301.3L586.1 301.3L586.7 301.2L587.1 301.2L587.6 301.1L588.0 301.0L588.4 300.9L588.7 300.9L589.0 300.8L589.3 300.7L589.5 300.6L589.7 300.4L589.8 300.3L589.9 300.2L590.0 300.1L590.0 300.0Z" stroke="#5B7FA6" stroke-width="0.55"/>
  <path d="M584.0 300.0L583.9 299.5L583.8 299.0L583.5 298.5L583.1 298.0L582.5 297.6L581.9 297.1L581.1 296.8L580.3 296.4L579.3 296.1L578.2 295.9L577.0 295.7L575.7 295.6L574.4 295.6L572.9 295.6L571.3 295.7L569.7 295.9L568.0 296.2L566.2 296.5L564.4 297.0L562.5 297.6L560.5 298.2L558.5 299.0L556.5 299.9L554.4 300.8L552.3 301.9L550.2 303.1L548.0 304.4L545.8 305.8L543.7 307.3L541.5 309.0L539.3 310.7L537.2 312.6L535.1 314.5L533.0 316.6L530.9 318.7L528.9 321.0L526.9 323.3L524.9 325.8L523.1 328.3L521.2 330.9L519.5 333.6L517.8 336.4L516.2 339.3L514.6 342.2L513.2 345.2L511.8 348.2L510.5 351.3L509.3 354.5L508.2 357.6L507.3 360.9L506.4 364.1L505.6 367.4L504.9 370.7L504.3 374.0L503.8 377.3L503.4 380.6L503.1 383.8L502.9 387.1L502.8 390.4L502.8 393.6L503.0 396.8L503.2 399.9L503.5 403.0L503.9 406.1L504.4 409.1L504.9 412.0L505.6 414.9L506.3 417.7L507.1 420.4L508.0 423.0L509.0 425.6L510.0 428.0L511.0 430.4L512.1 432.6L513.3 434.8L514.5 436.8L515.7 438.8L517.0 440.6L518.2 442.3L519.5 444.0L520.8 445.5L522.1 446.8L523.4 448.1L524.7 449.3L525.9 450.3L527.2 451.3L528.4 452.1L529.6 452.8L530.7 453.4L531.8 453.9L532.8 454.2L533.8 454.5L534.7 454.7L535.6 454.8L536.4 454.8L537.0 454.7L537.6 454.5L538.2 454.3L538.6 453.9L538.9 453.5L539.1 453.1L539.3 452.6L539.3 452.0L539.2 451.4L539.0 450.7L538.7 450.0L538.2 449.3L537.7 448.5L537.0 447.7L536.3 446.9L535.4 446.2L534.3 445.4L533.2 444.6L532.0 443.8L530.6 443.1L529.1 442.4L527.5 441.7L525.8 441.0L524.0 440.4L522.1 439.9L520.1 439.4L518.0 438.9L515.8 438.6L513.6 438.3L511.2 438.0L508.8 437.9L506.2 437.8L503.7 437.8L501.0 437.9L498.3 438.1L495.6 438.4L492.7 438.8L489.9 439.3L487.0 439.9L484.1 440.6L481.2 441.4L478.3 442.3L475.3 443.3L472.3 444.4L469.4 445.6L466.5 447.0L463.5 448.4L460.6 449.9L457.8 451.5L454.9 453.3L452.1 455.1L449.4 457.0L446.7 459.0L444.0 461.1L441.4 463.2L438.9 465.5L436.5 467.8L434.1 470.2L431.8 472.6L429.7 475.2L427.5 477.7L425.5 480.3L423.6 483.0L421.8 485.7L420.0 488.4L418.4 491.1L416.9 493.9L415.5 496.7L414.2 499.5L412.9 502.3L411.8 505.0L410.8 507.8L410.0 510.5L409.2 513.3L408.5 515.9L407.9 518.6L407.4 521.2L407.0 523.8L406.8 526.3L406.6 528.7L406.5 531.1L406.4 533.4L406.5 535.6L406.6 537.7L406.8 539.8L407.1 541.7L407.5 543.6L407.9 545.4L408.3 547.1L408.8 548.6L409.4 550.1L409.9 551.4L410.5 552.6L411.2 553.8L411.8 554.8L412.5 555.6L413.2 556.4L413.8 557.1L414.5 557.6L415.1 558.0L415.8 558.3L416.4 558.5L417.0 558.5L417.5 558.5L418.0 558.3L418.4 558.1L418.8 557.7L419.1 557.2L419.4 556.6L419.6 556.0L419.7 555.2L419.7 554.4L419.7 553.4L419.5 552.4L419.3 551.3L419.0 550.2L418.5 549.0L418.0 547.7L417.4 546.4L416.6 545.0L415.8 543.6L414.8 542.2L413.7 540.7L412.6 539.3L411.3 537.8L409.8 536.3L408.3 534.8L406.7 533.3L404.9 531.8L403.1 530.3L401.1 528.8L399.0 527.4L396.8 526.0L394.5 524.7L392.2 523.4L389.7 522.2L387.1 521.0L384.5 519.9L381.7 518.8L378.9 517.8L376.0 516.9L373.0 516.1L370.0 515.3L366.9 514.7L363.8 514.1L360.6 513.6L357.4 513.2L354.1 513.0L350.8 512.8L347.5 512.7L344.1 512.7L340.8 512.8L337.4 513.0L334.1 513.4L330.7 513.8L327.4 514.3L324.1 515.0L320.8 515.7L317.6 516.5L314.4 517.4L311.2 518.5L308.1 519.6L305.0 520.8L302.1 522.0L299.1 523.4L296.3 524.8L293.5 526.3L290.8 527.9L288.2 529.5L285.7 531.2L283.2 533.0L280.9 534.7L278.7 536.6L276.5 538.4L274.5 540.3L272.6 542.2L270.8 544.2L269.1 546.1L267.5 548.1L266.0 550.0L264.6 551.9L263.4 553.9L262.2 555.8L261.2 557.6L260.2 559.5L259.4 561.3L258.7 563.0L258.1 564.7L257.5 566.4L257.1 568.0L256.8 569.5L256.6 570.9L256.4 572.3L256.3 573.6L256.3 574.8L256.4 575.9L256.6 576.9L256.8 577.8L257.1 578.6L257.4 579.3L257.7 579.9L258.2 580.4L258.6 580.7L259.1 581.0L259.6 581.1L260.1 581.1L260.6 581.0L261.2 580.8L261.7 580.5L262.2 580.0L262.7 579.4L263.2 578.7L263.7 577.9L264.1 577.0L264.5 575.9L264.8 574.8L265.1 573.6L265.4 572.2L265.5 570.7L265.6 569.2L265.7 567.6L265.6 565.8L265.5 564.0L265.3 562.1L265.0 560.2L264.7 558.1L264.2 556.0L263.6 553.9L263.0 551.7L262.2 549.5L261.3 547.2L260.3 544.9L259.2 542.5L258.0 540.1L256.7 537.8L255.3 535.4L253.8 533.0L252.2 530.6L250.5 528.2L248.6 525.9L246.7 523.6L244.6 521.3L242.5 519.0L240.2 516.8L237.9 514.6L235.5 512.5L233.0 510.4L230.4 508.4L227.7 506.5L224.9 504.6L222.1 502.8L219.2 501.1L216.3 499.5L213.3 497.9L210.3 496.5L207.2 495.1L204.1 493.9L200.9 492.7L197.7 491.7L194.5 490.7L191.3 489.8L188.1 489.1L184.9 488.4L181.7 487.9L178.5 487.5L175.3 487.1L172.2 486.9L169.1 486.7L166.0 486.7L162.9 486.8L160.0 486.9L157.0 487.2L154.2 487.5L151.4 487.9L148.6 488.4L146.0 489.0L143.4 489.6L140.9 490.3L138.5 491.1L136.2 491.9L134.0 492.8L131.9 493.8L129.9 494.7L128.0 495.7L126.3 496.8L124.6 497.9L123.0 498.9L121.6 500.0L120.3 501.1L119.1 502.3L118.0 503.4L117.0 504.4L116.1 505.5L115.4 506.5L114.7 507.6L114.2 508.5L113.8 509.5L113.5 510.3L113.2 511.2L113.1 511.9L113.1 512.6L113.2 513.2L113.4 513.8L113.7 514.3L114.0 514.6L114.4 514.9L114.9 515.1L115.5 515.2L116.1 515.2L116.8 515.1L117.6 514.9L118.4 514.6L119.2 514.1L120.0 513.6L120.9 512.9L121.8 512.2L122.8 511.3L123.7 510.3L124.6 509.1L125.6 507.9L126.5 506.5L127.4 505.1L128.3 503.5L129.1 501.8L129.9 500.0L130.7 498.1L131.5 496.0L132.1 493.9L132.8 491.7L133.3 489.4L133.8 487.0L134.3 484.5L134.6 482.0L134.9 479.3L135.1 476.6L135.2 473.9L135.2 471.0L135.1 468.1L134.9 465.2L134.6 462.2L134.3 459.2L133.8 456.2L133.2 453.1L132.5 450.0L131.7 446.9L130.9 443.8L129.9 440.8L128.8 437.7L127.6 434.6L126.3 431.5L124.9 428.5L123.4 425.5L121.8 422.6L120.1 419.6L118.3 416.8L116.4 414.0L114.5 411.2L112.5 408.5L110.3 405.9L108.2 403.4L105.9 400.9L103.6 398.6L101.3 396.3L98.9 394.1L96.4 392.0L94.0 390.0L91.4 388.1L88.9 386.3L86.3 384.6L83.7 383.0L81.1 381.5L78.5 380.1L76.0 378.9L73.4 377.7L70.8 376.7L68.3 375.7L65.8 374.9L63.3 374.1L60.9 373.5L58.5 372.9L56.1 372.5L53.9 372.1L51.7 371.9L49.5 371.7L47.5 371.6L45.5 371.6L43.6 371.7L41.8 371.8L40.0 372.0L38.4 372.3L36.9 372.7L35.5 373.0L34.2 373.5L33.0 373.9L31.9 374.4L30.9 375.0L30.1 375.5L29.4 376.1L28.7 376.7L28.2 377.3L27.9 377.8L27.6 378.4L27.4 379.0L27.4 379.5L27.5 380.0L27.7 380.5L28.0 380.9L28.4 381.3L29.0 381.7L29.6 381.9L30.3 382.2L31.2 382.3L32.1 382.4L33.1 382.4L34.2 382.3L35.4 382.2L36.7 381.9L38.0 381.6L39.4 381.1L40.9 380.6L42.4 379.9L43.9 379.2L45.5 378.3L47.2 377.4L48.8 376.3L50.5 375.1L52.2 373.8L53.9 372.4L55.7 370.9L57.4 369.2L59.1 367.5L60.8 365.6L62.5 363.7L64.1 361.6L65.8 359.4L67.3 357.1L68.9 354.8L70.4 352.3L71.8 349.7L73.2 347.1L74.5 344.4L75.7 341.5L76.9 338.6L78.0 335.7L79.0 332.7L79.9 329.6L80.8 326.4L81.5 323.2L82.2 320.0L82.7 316.7L83.2 313.4L83.5 310.1L83.8 306.7L83.9 303.4L84.0 300.0L83.9 296.6L83.8 293.3L83.5 289.9L83.2 286.6L82.7 283.3L82.2 280.0L81.5 276.8L80.8 273.6L79.9 270.4L79.0 267.3L78.0 264.3L76.9 261.4L75.7 258.5L74.5 255.6L73.2 252.9L71.8 250.3L70.4 247.7L68.9 245.2L67.3 242.9L65.8 240.6L64.1 238.4L62.5 236.3L60.8 234.4L59.1 232.5L57.4 230.8L55.7 229.1L53.9 227.6L52.2 226.2L50.5 224.9L48.8 223.7L47.2 222.6L45.5 221.7L43.9 220.8L42.4 220.1L40.9 219.4L39.4 218.9L38.0 218.4L36.7 218.1L35.4 217.8L34.2 217.7L33.1 217.6L32.1 217.6L31.2 217.7L30.3 217.8L29.6 218.1L29.0 218.3L28.4 218.7L28.0 219.1L27.7 219.5L27.5 220.0L27.4 220.5L27.4 221.0L27.6 221.6L27.9 222.2L28.2 222.7L28.7 223.3L29.4 223.9L30.1 224.5L30.9 225.0L31.9 225.6L33.0 226.1L34.2 226.5L35.5 227.0L36.9 227.3L38.4 227.7L40.0 228.0L41.8 228.2L43.6 228.3L45.5 228.4L47.5 228.4L49.5 228.3L51.7 228.1L53.9 227.9L56.1 227.5L58.5 227.1L60.9 226.5L63.3 225.9L65.8 225.1L68.3 224.3L70.8 223.3L73.4 222.3L76.0 221.1L78.5 219.9L81.1 218.5L83.7 217.0L86.3 215.4L88.9 213.7L91.4 211.9L94.0 210.0L96.4 208.0L98.9 205.9L101.3 203.7L103.6 201.4L105.9 199.1L108.2 196.6L110.3 194.1L112.5 191.5L114.5 188.8L116.4 186.0L118.3 183.2L120.1 180.4L121.8 177.4L123.4 174.5L124.9 171.5L126.3 168.5L127.6 165.4L128.8 162.3L129.9 159.2L130.9 156.2L131.7 153.1L132.5 150.0L133.2 146.9L133.8 143.8L134.3 140.8L134.6 137.8L134.9 134.8L135.1 131.9L135.2 129.0L135.2 126.1L135.1 123.4L134.9 120.7L134.6 118.0L134.3 115.5L133.8 113.0L133.3 110.6L132.8 108.3L132.1 106.1L131.5 104.0L130.7 101.9L129.9 100.0L129.1 98.2L128.3 96.5L127.4 94.9L126.5 93.5L125.6 92.1L124.6 90.9L123.7 89.7L122.8 88.7L121.8 87.8L120.9 87.1L120.0 86.4L119.2 85.9L118.4 85.4L117.6 85.1L116.8 84.9L116.1 84.8L115.5 84.8L114.9 84.9L114.4 85.1L114.0 85.4L113.7 85.7L113.4 86.2L113.2 86.8L113.1 87.4L113.1 88.1L113.2 88.8L113.5 89.7L113.8 90.5L114.2 91.5L114.7 92.4L115.4 93.5L116.1 94.5L117.0 95.6L118.0 96.6L119.1 97.7L120.3 98.9L121.6 100.0L123.0 101.1L124.6 102.1L126.3 103.2L128.0 104.3L129.9 105.3L131.9 106.2L134.0 107.2L136.2 108.1L138.5 108.9L140.9 109.7L143.4 110.4L146.0 111.0L148.6 111.6L151.4 112.1L154.2 112.5L157.0 112.8L160.0 113.1L162.9 113.2L166.0 113.3L169.1 113.3L172.2 113.1L175.3 112.9L178.5 112.5L181.7 112.1L184.9 111.6L188.1 110.9L191.3 110.2L194.5 109.3L197.7 108.3L200.9 107.3L204.1 106.1L207.2 104.9L210.3 103.5L213.3 102.1L216.3 100.5L219.2 98.9L222.1 97.2L224.9 95.4L227.7 93.5L230.4 91.6L233.0 89.6L235.5 87.5L237.9 85.4L240.2 83.2L242.5 81.0L244.6 78.7L246.7 76.4L248.6 74.1L250.5 71.8L252.2 69.4L253.8 67.0L255.3 64.6L256.7 62.2L258.0 59.9L259.2 57.5L260.3 55.1L261.3 52.8L262.2 50.5L263.0 48.3L263.6 46.1L264.2 44.0L264.7 41.9L265.0 39.8L265.3 37.9L265.5 36.0L265.6 34.2L265.7 32.4L265.6 30.8L265.5 29.3L265.4 27.8L265.1 26.4L264.8 25.2L264.5 24.1L264.1 23.0L263.7 22.1L263.2 21.3L262.7 20.6L262.2 20.0L261.7 19.5L261.2 19.2L260.6 19.0L260.1 18.9L259.6 18.9L259.1 19.0L258.6 19.3L258.2 19.6L257.7 20.1L257.4 20.7L257.1 21.4L256.8 22.2L256.6 23.1L256.4 24.1L256.3 25.2L256.3 26.4L256.4 27.7L256.6 29.1L256.8 30.5L257.1 32.0L257.5 33.6L258.1 35.3L258.7 37.0L259.4 38.7L260.2 40.5L261.2 42.4L262.2 44.2L263.4 46.1L264.6 48.1L266.0 50.0L267.5 51.9L269.1 53.9L270.8 55.8L272.6 57.8L274.5 59.7L276.5 61.6L278.7 63.4L280.9 65.3L283.2 67.0L285.7 68.8L288.2 70.5L290.8 72.1L293.5 73.7L296.3 75.2L299.1 76.6L302.1 78.0L305.0 79.2L308.1 80.4L311.2 81.5L314.4 82.6L317.6 83.5L320.8 84.3L324.1 85.0L327.4 85.7L330.7 86.2L334.1 86.6L337.4 87.0L340.8 87.2L344.1 87.3L347.5 87.3L350.8 87.2L354.1 87.0L357.4 86.8L360.6 86.4L363.8 85.9L366.9 85.3L370.0 84.7L373.0 83.9L376.0 83.1L378.9 82.2L381.7 81.2L384.5 80.1L387.1 79.0L389.7 77.8L392.2 76.6L394.5 75.3L396.8 74.0L399.0 72.6L401.1 71.2L403.1 69.7L404.9 68.2L406.7 66.7L408.3 65.2L409.8 63.7L411.3 62.2L412.6 60.7L413.7 59.3L414.8 57.8L415.8 56.4L416.6 55.0L417.4 53.6L418.0 52.3L418.5 51.0L419.0 49.8L419.3 48.7L419.5 47.6L419.7 46.6L419.7 45.6L419.7 44.8L419.6 44.0L419.4 43.4L419.1 42.8L418.8 42.3L418.4 41.9L418.0 41.7L417.5 41.5L417.0 41.5L416.4 41.5L415.8 41.7L415.1 42.0L414.5 42.4L413.8 42.9L413.2 43.6L412.5 44.4L411.8 45.2L411.2 46.2L410.5 47.4L409.9 48.6L409.4 49.9L408.8 51.4L408.3 52.9L407.9 54.6L407.5 56.4L407.1 58.3L406.8 60.2L406.6 62.3L406.5 64.4L406.4 66.6L406.5 68.9L406.6 71.3L406.8 73.7L407.0 76.2L407.4 78.8L407.9 81.4L408.5 84.1L409.2 86.7L410.0 89.5L410.8 92.2L411.8 95.0L412.9 97.7L414.2 100.5L415.5 103.3L416.9 106.1L418.4 108.9L420.0 111.6L421.8 114.3L423.6 117.0L425.5 119.7L427.5 122.3L429.7 124.8L431.8 127.4L434.1 129.8L436.5 132.2L438.9 134.5L441.4 136.8L444.0 138.9L446.7 141.0L449.4 143.0L452.1 144.9L454.9 146.7L457.8 148.5L460.6 150.1L463.5 151.6L466.5 153.0L469.4 154.4L472.3 155.6L475.3 156.7L478.3 157.7L481.2 158.6L484.1 159.4L487.0 160.1L489.9 160.7L492.7 161.2L495.6 161.6L498.3 161.9L501.0 162.1L503.7 162.2L506.2 162.2L508.8 162.1L511.2 162.0L513.6 161.7L515.8 161.4L518.0 161.1L520.1 160.6L522.1 160.1L524.0 159.6L525.8 159.0L527.5 158.3L529.1 157.6L530.6 156.9L532.0 156.2L533.2 155.4L534.3 154.6L535.4 153.8L536.3 153.1L537.0 152.3L537.7 151.5L538.2 150.7L538.7 150.0L539.0 149.3L539.2 148.6L539.3 148.0L539.3 147.4L539.1 146.9L538.9 146.5L538.6 146.1L538.2 145.7L537.6 145.5L537.0 145.3L536.4 145.2L535.6 145.2L534.7 145.3L533.8 145.5L532.8 145.8L531.8 146.1L530.7 146.6L529.6 147.2L528.4 147.9L527.2 148.7L525.9 149.7L524.7 150.7L523.4 151.9L522.1 153.2L520.8 154.5L519.5 156.0L518.2 157.7L517.0 159.4L515.7 161.2L514.5 163.2L513.3 165.2L512.1 167.4L511.0 169.6L510.0 172.0L509.0 174.4L508.0 177.0L507.1 179.6L506.3 182.3L505.6 185.1L504.9 188.0L504.4 190.9L503.9 193.9L503.5 197.0L503.2 200.1L503.0 203.2L502.8 206.4L502.8 209.6L502.9 212.9L503.1 216.2L503.4 219.4L503.8 222.7L504.3 226.0L504.9 229.3L505.6 232.6L506.4 235.9L507.3 239.1L508.2 242.4L509.3 245.5L510.5 248.7L511.8 251.8L513.2 254.8L514.6 257.8L516.2 260.7L517.8 263.6L519.5 266.4L521.2 269.1L523.1 271.7L524.9 274.2L526.9 276.7L528.9 279.0L530.9 281.3L533.0 283.4L535.1 285.5L537.2 287.4L539.3 289.3L541.5 291.0L543.7 292.7L545.8 294.2L548.0 295.6L550.2 296.9L552.3 298.1L554.4 299.2L556.5 300.1L558.5 301.0L560.5 301.8L562.5 302.4L564.4 303.0L566.2 303.5L568.0 303.8L569.7 304.1L571.3 304.3L572.9 304.4L574.4 304.4L575.7 304.4L577.0 304.3L578.2 304.1L579.3 303.9L580.3 303.6L581.1 303.2L581.9 302.9L582.5 302.4L583.1 302.0L583.5 301.5L583.8 301.0L583.9 300.5L584.0 300.0Z" stroke="#B36B7C" stroke-width="0.45"/>
  <path d="M514.0 300.0L514.0 300.4L513.9 300.9L513.8 301.3L513.7 301.8L513.5 302.2L513.3 302.7L513.0 303.1L512.7 303.6L512.4 304.0L512.0 304.5L511.6 304.9L511.2 305.4L510.7 305.8L510.2 306.3L509.6 306.8L509.0 307.2L508.3 307.7L507.7 308.2L506.9 308.6L506.2 309.1L505.4 309.6L504.6 310.0L503.7 310.5L502.8 311.0L501.8 311.5L500.9 312.0L499.8 312.5L498.8 313.0L497.7 313.5L496.6 314.0L495.4 314.5L494.2 315.0L493.0 315.5L491.7 316.0L490.4 316.5L489.1 317.1L487.7 317.6L486.3 318.1L484.9 318.7L483.4 319.2L481.9 319.8L480.4 320.3L478.8 320.9L477.2 321.5L475.6 322.0L473.9 322.6L472.2 323.2L470.5 323.8L468.8 324.4L467.0 324.9L465.2 325.6L463.3 326.2L461.5 326.8L459.6 327.4L457.6 328.0L455.7 328.6L453.7 329.3L451.7 329.9L449.7 330.6L447.6 331.2L445.5 331.9L443.4 332.5L441.3 333.2L439.2 333.9L437.0 334.6L434.8 335.2L432.6 335.9L430.3 336.6L428.0 337.3L425.8 338.0L423.4 338.8L421.1 339.5L418.8 340.2L416.4 340.9L414.0 341.7L411.6 342.4L409.2 343.2L406.8 343.9L404.3 344.7L401.8 345.4L399.3 346.2L396.8 347.0L394.3 347.8L391.8 348.5L389.3 349.3L386.7 350.1L384.1 350.9L381.6 351.7L379.0 352.5L376.4 353.3L373.7 354.2L371.1 355.0L368.5 355.8L365.9 356.6L363.2 357.5L360.5 358.3L357.9 359.2L355.2 360.0L352.5 360.8L349.9 361.7L347.2 362.6L344.5 363.4L341.8 364.3L339.1 365.1L336.4 366.0L333.7 366.9L331.0 367.7L328.3 368.6L325.6 369.5L322.9 370.4L320.2 371.3L317.5 372.1L314.8 373.0L312.1 373.9L309.4 374.8L306.7 375.7L304.0 376.6L301.3 377.4L298.6 378.3L295.9 379.2L293.3 380.1L290.6 381.0L287.9 381.9L285.3 382.8L282.6 383.6L280.0 384.5L277.4 385.4L274.8 386.3L272.2 387.2L269.6 388.0L267.0 388.9L264.4 389.8L261.9 390.6L259.3 391.5L256.8 392.4L254.3 393.2L251.8 394.1L249.3 394.9L246.8 395.8L244.3 396.6L241.9 397.4L239.4 398.3L237.0 399.1L234.6 399.9L232.2 400.7L229.9 401.5L227.5 402.3L225.2 403.1L222.9 403.9L220.6 404.7L218.4 405.5L216.1 406.2L213.9 407.0L211.7 407.7L209.5 408.5L207.3 409.2L205.2 409.9L203.1 410.6L201.0 411.3L198.9 412.0L196.9 412.7L194.8 413.4L192.8 414.0L190.9 414.7L188.9 415.3L187.0 415.9L185.1 416.6L183.2 417.2L181.4 417.8L179.6 418.3L177.8 418.9L176.0 419.5L174.3 420.0L172.6 420.5L170.9 421.0L169.2 421.5L167.6 422.0L166.0 422.5L164.5 422.9L162.9 423.4L161.4 423.8L159.9 424.2L158.5 424.6L157.1 425.0L155.7 425.3L154.3 425.7L153.0 426.0L151.7 426.3L150.4 426.6L149.2 426.8L148.0 427.1L146.8 427.3L145.7 427.6L144.5 427.8L143.5 427.9L142.4 428.1L141.4 428.2L140.4 428.4L139.5 428.5L138.5 428.5L137.6 428.6L136.8 428.7L136.0 428.7L135.2 428.7L134.4 428.7L133.7 428.6L133.0 428.6L132.3 428.5L131.7 428.4L131.1 428.3L130.5 428.1L130.0 427.9L129.5 427.7L129.0 427.5L128.6 427.3L128.2 427.0L127.8 426.8L127.5 426.5L127.1 426.1L126.9 425.8L126.6 425.4L126.4 425.0L126.2 424.6L126.1 424.2L126.0 423.7L125.9 423.2L125.8 422.7L125.8 422.2L125.8 421.6L125.8 421.0L125.9 420.4L126.0 419.8L126.1 419.1L126.3 418.4L126.5 417.7L126.7 417.0L126.9 416.2L127.2 415.5L127.5 414.7L127.8 413.8L128.2 413.0L128.6 412.1L129.0 411.2L129.5 410.3L130.0 409.3L130.5 408.4L131.0 407.4L131.6 406.4L132.1 405.3L132.8 404.2L133.4 403.2L134.1 402.0L134.8 400.9L135.5 399.7L136.2 398.5L137.0 397.3L137.8 396.1L138.6 394.8L139.4 393.6L140.3 392.3L141.2 390.9L142.1 389.6L143.1 388.2L144.0 386.8L145.0 385.4L146.0 383.9L147.0 382.5L148.1 381.0L149.2 379.5L150.2 378.0L151.4 376.4L152.5 374.8L153.6 373.2L154.8 371.6L156.0 370.0L157.2 368.3L158.4 366.7L159.7 365.0L160.9 363.3L162.2 361.5L163.5 359.8L164.8 358.0L166.2 356.2L167.5 354.4L168.9 352.6L170.3 350.7L171.6 348.8L173.1 347.0L174.5 345.1L175.9 343.1L177.4 341.2L178.8 339.3L180.3 337.3L181.8 335.3L183.3 333.3L184.8 331.3L186.3 329.3L187.8 327.2L189.4 325.2L190.9 323.1L192.5 321.0L194.0 318.9L195.6 316.8L197.2 314.7L198.8 312.6L200.4 310.4L202.0 308.3L203.6 306.1L205.2 303.9L206.9 301.7L208.5 299.5L210.1 297.3L211.8 295.1L213.4 292.9L215.1 290.7L216.7 288.4L218.4 286.2L220.1 283.9L221.7 281.7L223.4 279.4L225.1 277.1L226.7 274.8L228.4 272.6L230.1 270.3L231.8 268.0L233.4 265.7L235.1 263.4L236.8 261.1L238.5 258.8L240.1 256.5L241.8 254.2L243.5 251.9L245.1 249.6L246.8 247.3L248.5 245.0L250.1 242.7L251.8 240.4L253.4 238.1L255.1 235.8L256.7 233.5L258.4 231.2L260.0 228.9L261.6 226.7L263.3 224.4L264.9 222.1L266.5 219.9L268.1 217.6L269.7 215.4L271.3 213.1L272.9 210.9L274.4 208.7L276.0 206.5L277.6 204.2L279.1 202.1L280.7 199.9L282.2 197.7L283.7 195.5L285.3 193.4L286.8 191.2L288.3 189.1L289.8 187.0L291.2 184.9L292.7 182.8L294.2 180.7L295.6 178.7L297.0 176.6L298.5 174.6L299.9 172.6L301.3 170.6L302.7 168.6L304.1 166.7L305.4 164.8L306.8 162.8L308.1 160.9L309.5 159.1L310.8 157.2L312.1 155.4L313.4 153.5L314.7 151.7L315.9 150.0L317.2 148.2L318.4 146.5L319.7 144.8L320.9 143.1L322.1 141.4L323.3 139.8L324.4 138.2L325.6 136.6L326.7 135.0L327.9 133.5L329.0 132.0L330.1 130.5L331.2 129.0L332.3 127.6L333.3 126.2L334.4 124.8L335.4 123.5L336.4 122.2L337.4 120.9L338.4 119.6L339.4 118.4L340.3 117.2L341.3 116.0L342.2 114.9L343.1 113.8L344.0 112.7L344.9 111.7L345.8 110.7L346.6 109.7L347.5 108.7L348.3 107.8L349.1 106.9L349.9 106.1L350.7 105.3L351.4 104.5L352.2 103.7L352.9 103.0L353.7 102.3L354.4 101.7L355.1 101.1L355.8 100.5L356.4 100.0L357.1 99.5L357.7 99.0L358.3 98.6L359.0 98.2L359.5 97.8L360.1 97.5L360.7 97.2L361.3 97.0L361.8 96.7L362.3 96.6L362.9 96.4L363.4 96.3L363.9 96.3L364.3 96.2L364.8 96.2L365.3 96.3L365.7 96.4L366.1 96.5L366.5 96.6L367.0 96.8L367.3 97.1L367.7 97.3L368.1 97.6L368.5 98.0L368.8 98.4L369.1 98.8L369.5 99.2L369.8 99.7L370.1 100.3L370.4 100.8L370.7 101.4L370.9 102.1L371.2 102.8L371.4 103.5L371.7 104.2L371.9 105.0L372.1 105.8L372.4 106.7L372.6 107.6L372.8 108.6L373.0 109.5L373.1 110.5L373.3 111.6L373.5 112.7L373.6 113.8L373.8 114.9L373.9 116.1L374.0 117.4L374.2 118.6L374.3 119.9L374.4 121.2L374.5 122.6L374.6 124.0L374.7 125.4L374.8 126.9L374.8 128.4L374.9 129.9L375.0 131.5L375.0 133.1L375.1 134.7L375.1 136.4L375.2 138.1L375.2 139.8L375.2 141.6L375.3 143.4L375.3 145.2L375.3 147.0L375.3 148.9L375.3 150.8L375.3 152.7L375.4 154.7L375.4 156.7L375.4 158.7L375.3 160.8L375.3 162.9L375.3 165.0L375.3 167.1L375.3 169.2L375.3 171.4L375.3 173.6L375.2 175.9L375.2 178.1L375.2 180.4L375.2 182.7L375.1 185.0L375.1 187.4L375.1 189.8L375.0 192.2L375.0 194.6L375.0 197.0L374.9 199.5L374.9 201.9L374.9 204.4L374.8 206.9L374.8 209.5L374.7 212.0L374.7 214.6L374.7 217.2L374.6 219.8L374.6 222.4L374.6 225.0L374.5 227.7L374.5 230.4L374.5 233.0L374.4 235.7L374.4 238.4L374.4 241.1L374.3 243.9L374.3 246.6L374.3 249.3L374.2 252.1L374.2 254.9L374.2 257.6L374.2 260.4L374.1 263.2L374.1 266.0L374.1 268.8L374.1 271.6L374.1 274.5L374.1 277.3L374.0 280.1L374.0 283.0L374.0 285.8L374.0 288.6L374.0 291.5L374.0 294.3L374.0 297.2L374.0 300.0L374.0 302.8L374.0 305.7L374.0 308.5L374.0 311.4L374.0 314.2L374.0 317.0L374.0 319.9L374.1 322.7L374.1 325.5L374.1 328.4L374.1 331.2L374.1 334.0L374.1 336.8L374.2 339.6L374.2 342.4L374.2 345.1L374.2 347.9L374.3 350.7L374.3 353.4L374.3 356.1L374.4 358.9L374.4 361.6L374.4 364.3L374.5 367.0L374.5 369.6L374.5 372.3L374.6 375.0L374.6 377.6L374.6 380.2L374.7 382.8L374.7 385.4L374.7 388.0L374.8 390.5L374.8 393.1L374.9 395.6L374.9 398.1L374.9 400.5L375.0 403.0L375.0 405.4L375.0 407.8L375.1 410.2L375.1 412.6L375.1 415.0L375.2 417.3L375.2 419.6L375.2 421.9L375.2 424.1L375.3 426.4L375.3 428.6L375.3 430.8L375.3 432.9L375.3 435.0L375.3 437.1L375.3 439.2L375.4 441.3L375.4 443.3L375.4 445.3L375.3 447.3L375.3 449.2L375.3 451.1L375.3 453.0L375.3 454.8L375.3 456.6L375.2 458.4L375.2 460.2L375.2 461.9L375.1 463.6L375.1 465.3L375.0 466.9L375.0 468.5L374.9 470.1L374.8 471.6L374.8 473.1L374.7 474.6L374.6 476.0L374.5 477.4L374.4 478.8L374.3 480.1L374.2 481.4L374.0 482.6L373.9 483.9L373.8 485.1L373.6 486.2L373.5 487.3L373.3 488.4L373.1 489.5L373.0 490.5L372.8 491.4L372.6 492.4L372.4 493.3L372.1 494.2L371.9 495.0L371.7 495.8L371.4 496.5L371.2 497.2L370.9 497.9L370.7 498.6L370.4 499.2L370.1 499.7L369.8 500.3L369.5 500.8L369.1 501.2L368.8 501.6L368.5 502.0L368.1 502.4L367.7 502.7L367.3 502.9L367.0 503.2L366.5 503.4L366.1 503.5L365.7 503.6L365.3 503.7L364.8 503.8L364.3 503.8L363.9 503.7L363.4 503.7L362.9 503.6L362.3 503.4L361.8 503.3L361.3 503.0L360.7 502.8L360.1 502.5L359.5 502.2L359.0 501.8L358.3 501.4L357.7 501.0L357.1 500.5L356.4 500.0L355.8 499.5L355.1 498.9L354.4 498.3L353.7 497.7L352.9 497.0L352.2 496.3L351.4 495.5L350.7 494.7L349.9 493.9L349.1 493.1L348.3 492.2L347.5 491.3L346.6 490.3L345.8 489.3L344.9 488.3L344.0 487.3L343.1 486.2L342.2 485.1L341.3 484.0L340.3 482.8L339.4 481.6L338.4 480.4L337.4 479.1L336.4 477.8L335.4 476.5L334.4 475.2L333.3 473.8L332.3 472.4L331.2 471.0L330.1 469.5L329.0 468.0L327.9 466.5L326.7 465.0L325.6 463.4L324.4 461.8L323.3 460.2L322.1 458.6L320.9 456.9L319.7 455.2L318.4 453.5L317.2 451.8L315.9 450.0L314.7 448.3L313.4 446.5L312.1 444.6L310.8 442.8L309.5 440.9L308.1 439.1L306.8 437.2L305.4 435.2L304.1 433.3L302.7 431.4L301.3 429.4L299.9 427.4L298.5 425.4L297.0 423.4L295.6 421.3L294.2 419.3L292.7 417.2L291.2 415.1L289.8 413.0L288.3 410.9L286.8 408.8L285.3 406.6L283.7 404.5L282.2 402.3L280.7 400.1L279.1 397.9L277.6 395.8L276.0 393.5L274.4 391.3L272.9 389.1L271.3 386.9L269.7 384.6L268.1 382.4L266.5 380.1L264.9 377.9L263.3 375.6L261.6 373.3L260.0 371.1L258.4 368.8L256.7 366.5L255.1 364.2L253.4 361.9L251.8 359.6L250.1 357.3L248.5 355.0L246.8 352.7L245.1 350.4L243.5 348.1L241.8 345.8L240.1 343.5L238.5 341.2L236.8 338.9L235.1 336.6L233.4 334.3L231.8 332.0L230.1 329.7L228.4 327.4L226.7 325.2L225.1 322.9L223.4 320.6L221.7 318.3L220.1 316.1L218.4 313.8L216.7 311.6L215.1 309.3L213.4 307.1L211.8 304.9L210.1 302.7L208.5 300.5L206.9 298.3L205.2 296.1L203.6 293.9L202.0 291.7L200.4 289.6L198.8 287.4L197.2 285.3L195.6 283.2L194.0 281.1L192.5 279.0L190.9 276.9L189.4 274.8L187.8 272.8L186.3 270.7L184.8 268.7L183.3 266.7L181.8 264.7L180.3 262.7L178.8 260.7L177.4 258.8L175.9 256.9L174.5 254.9L173.1 253.0L171.6 251.2L170.3 249.3L168.9 247.4L167.5 245.6L166.2 243.8L164.8 242.0L163.5 240.2L162.2 238.5L160.9 236.7L159.7 235.0L158.4 233.3L157.2 231.7L156.0 230.0L154.8 228.4L153.6 226.8L152.5 225.2L151.4 223.6L150.2 222.0L149.2 220.5L148.1 219.0L147.0 217.5L146.0 216.1L145.0 214.6L144.0 213.2L143.1 211.8L142.1 210.4L141.2 209.1L140.3 207.7L139.4 206.4L138.6 205.2L137.8 203.9L137.0 202.7L136.2 201.5L135.5 200.3L134.8 199.1L134.1 198.0L133.4 196.8L132.8 195.8L132.1 194.7L131.6 193.6L131.0 192.6L130.5 191.6L130.0 190.7L129.5 189.7L129.0 188.8L128.6 187.9L128.2 187.0L127.8 186.2L127.5 185.3L127.2 184.5L126.9 183.8L126.7 183.0L126.5 182.3L126.3 181.6L126.1 180.9L126.0 180.2L125.9 179.6L125.8 179.0L125.8 178.4L125.8 177.8L125.8 177.3L125.9 176.8L126.0 176.3L126.1 175.8L126.2 175.4L126.4 175.0L126.6 174.6L126.9 174.2L127.1 173.9L127.5 173.5L127.8 173.2L128.2 173.0L128.6 172.7L129.0 172.5L129.5 172.3L130.0 172.1L130.5 171.9L131.1 171.7L131.7 171.6L132.3 171.5L133.0 171.4L133.7 171.4L134.4 171.3L135.2 171.3L136.0 171.3L136.8 171.3L137.6 171.4L138.5 171.5L139.5 171.5L140.4 171.6L141.4 171.8L142.4 171.9L143.5 172.1L144.5 172.2L145.7 172.4L146.8 172.7L148.0 172.9L149.2 173.2L150.4 173.4L151.7 173.7L153.0 174.0L154.3 174.3L155.7 174.7L157.1 175.0L158.5 175.4L159.9 175.8L161.4 176.2L162.9 176.6L164.5 177.1L166.0 177.5L167.6 178.0L169.2 178.5L170.9 179.0L172.6 179.5L174.3 180.0L176.0 180.5L177.8 181.1L179.6 181.7L181.4 182.2L183.2 182.8L185.1 183.4L187.0 184.1L188.9 184.7L190.9 185.3L192.8 186.0L194.8 186.6L196.9 187.3L198.9 188.0L201.0 188.7L203.1 189.4L205.2 190.1L207.3 190.8L209.5 191.5L211.7 192.3L213.9 193.0L216.1 193.8L218.4 194.5L220.6 195.3L222.9 196.1L225.2 196.9L227.5 197.7L229.9 198.5L232.2 199.3L234.6 200.1L237.0 200.9L239.4 201.7L241.9 202.6L244.3 203.4L246.8 204.2L249.3 205.1L251.8 205.9L254.3 206.8L256.8 207.6L259.3 208.5L261.9 209.4L264.4 210.2L267.0 211.1L269.6 212.0L272.2 212.8L274.8 213.7L277.4 214.6L280.0 215.5L282.6 216.4L285.3 217.2L287.9 218.1L290.6 219.0L293.3 219.9L295.9 220.8L298.6 221.7L301.3 222.6L304.0 223.4L306.7 224.3L309.4 225.2L312.1 226.1L314.8 227.0L317.5 227.9L320.2 228.7L322.9 229.6L325.6 230.5L328.3 231.4L331.0 232.3L333.7 233.1L336.4 234.0L339.1 234.9L341.8 235.7L344.5 236.6L347.2 237.4L349.9 238.3L352.5 239.2L355.2 240.0L357.9 240.8L360.5 241.7L363.2 242.5L365.9 243.4L368.5 244.2L371.1 245.0L373.7 245.8L376.4 246.7L379.0 247.5L381.6 248.3L384.1 249.1L386.7 249.9L389.3 250.7L391.8 251.5L394.3 252.2L396.8 253.0L399.3 253.8L401.8 254.6L404.3 255.3L406.8 256.1L409.2 256.8L411.6 257.6L414.0 258.3L416.4 259.1L418.8 259.8L421.1 260.5L423.4 261.2L425.8 262.0L428.0 262.7L430.3 263.4L432.6 264.1L434.8 264.8L437.0 265.4L439.2 266.1L441.3 266.8L443.4 267.5L445.5 268.1L447.6 268.8L449.7 269.4L451.7 270.1L453.7 270.7L455.7 271.4L457.6 272.0L459.6 272.6L461.5 273.2L463.3 273.8L465.2 274.4L467.0 275.1L468.8 275.6L470.5 276.2L472.2 276.8L473.9 277.4L475.6 278.0L477.2 278.5L478.8 279.1L480.4 279.7L481.9 280.2L483.4 280.8L484.9 281.3L486.3 281.9L487.7 282.4L489.1 282.9L490.4 283.5L491.7 284.0L493.0 284.5L494.2 285.0L495.4 285.5L496.6 286.0L497.7 286.5L498.8 287.0L499.8 287.5L500.9 288.0L501.8 288.5L502.8 289.0L503.7 289.5L504.6 290.0L505.4 290.4L506.2 290.9L506.9 291.4L507.7 291.8L508.3 292.3L509.0 292.8L509.6 293.2L510.2 293.7L510.7 294.2L511.2 294.6L511.6 295.1L512.0 295.5L512.4 296.0L512.7 296.4L513.0 296.9L513.3 297.3L513.5 297.8L513.7 298.2L513.8 298.7L513.9 299.1L514.0 299.6L514.0 300.0Z" stroke="#5B7FA6" stroke-width="0.45"/>
  <path d="M524.0 300.0L522.1 294.5L516.7 289.7L507.8 286.4L496.1 285.1L482.0 286.4L466.2 290.6L449.4 297.9L432.4 308.3L416.1 321.6L401.0 337.6L387.8 355.7L377.0 375.4L369.0 395.8L363.9 416.3L361.7 436.1L362.2 454.3L365.2 470.4L370.1 483.8L376.2 493.8L383.0 500.4L389.6 503.3L395.4 502.7L399.6 498.7L401.5 491.7L400.8 482.3L396.9 471.1L389.8 458.9L379.2 446.3L365.5 434.3L348.9 423.4L329.8 414.2L309.0 407.4L287.0 403.2L264.6 401.8L242.7 403.2L222.0 407.3L203.2 413.8L186.9 422.0L173.5 431.6L163.6 441.6L157.1 451.5L154.0 460.4L154.2 467.7L157.2 472.6L162.6 474.7L169.8 473.5L178.0 468.8L186.5 460.6L194.5 448.9L201.3 434.0L206.4 416.4L209.2 396.8L209.3 375.6L206.6 353.8L201.1 332.1L192.8 311.3L182.2 292.1L169.7 275.1L155.8 260.8L141.4 249.6L127.1 241.6L113.8 236.8L102.1 235.2L92.7 236.2L86.2 239.4L83.0 244.3L83.5 250.1L87.6 256.0L95.3 261.5L106.4 265.6L120.4 267.9L136.7 267.8L154.8 264.9L173.8 259.0L193.0 250.2L211.5 238.5L228.8 224.2L244.1 207.9L257.0 190.0L267.0 171.5L274.1 152.9L278.1 135.0L279.2 118.7L277.8 104.6L274.4 93.3L269.5 85.2L263.8 80.8L258.0 80.0L253.0 82.8L249.3 89.1L247.7 98.4L248.7 110.2L252.6 123.8L259.6 138.5L269.9 153.7L283.3 168.4L299.5 181.9L318.0 193.8L338.3 203.3L359.6 210.2L381.2 214.3L402.3 215.4L422.1 213.9L439.9 209.9L455.2 204.0L467.4 196.8L476.1 188.8L481.3 180.9L483.0 173.9L481.2 168.3L476.5 165.0L469.3 164.3L460.2 166.8L449.9 172.7L439.2 182.1L428.9 194.7L419.6 210.5L412.0 228.9L406.6 249.3L403.8 271.1L403.8 293.5L406.6 315.7L412.1 337.0L420.0 356.5L429.9 373.8L441.1 388.3L452.9 399.6L464.7 407.5L475.6 412.0L484.9 413.4L492.0 411.8L496.3 407.9L497.3 402.2L494.8 395.4L488.7 388.2L479.0 381.5L466.0 375.8L450.1 371.8L431.9 370.1L412.1 371.1L391.3 374.9L370.4 381.6L350.1 391.1L331.2 403.1L314.3 417.2L300.0 432.7L288.5 449.0L280.2 465.2L275.0 480.8L272.9 494.8L273.4 506.6L276.2 515.6L280.6 521.4L285.9 523.6L291.5 522.1L296.6 516.9L300.5 508.3L302.5 496.6L302.1 482.5L298.9 466.4L292.7 449.2L283.4 431.7L271.1 414.5L256.1 398.4L238.9 384.1L220.0 372.2L200.1 362.9L179.9 356.5L160.3 353.0L142.1 352.4L125.8 354.4L112.2 358.4L101.8 363.9L94.8 370.2L91.4 376.7L91.7 382.5L95.5 386.9L102.3 389.3L111.7 389.1L123.1 386.0L135.8 379.6L149.0 369.9L161.9 357.0L173.8 341.0L184.1 322.6L192.3 302.2L197.8 280.5L200.6 258.3L200.6 236.3L197.8 215.4L192.5 196.2L185.3 179.4L176.6 165.5L167.2 154.9L157.8 147.8L149.1 144.2L141.8 143.9L136.7 146.7L134.3 151.9L135.0 159.2L139.2 167.6L146.9 176.6L158.1 185.3L172.5 193.1L189.7 199.3L209.1 203.3L230.2 204.8L252.1 203.4L274.1 199.3L295.4 192.3L315.3 182.9L333.0 171.5L348.2 158.6L360.3 144.9L369.1 131.1L374.7 118.1L377.1 106.5L376.7 97.1L373.9 90.4L369.2 87.0L363.4 87.0L357.2 90.8L351.3 98.1L346.5 108.9L343.3 122.7L342.4 139.1L344.2 157.3L348.8 176.6L356.5 196.3L367.0 215.6L380.1 233.7L395.5 250.0L412.4 264.0L430.4 275.2L448.5 283.4L466.0 288.5L482.2 290.7L496.4 290.2L507.9 287.4L516.2 283.0L521.1 277.6L522.2 271.9L519.7 266.7L513.7 262.7L504.5 260.5L492.7 260.7L478.8 263.7L463.7 269.9L447.9 279.2L432.4 291.6L417.9 306.9L404.9 324.7L394.1 344.3L385.9 365.1L380.5 386.4L378.0 407.4L378.3 427.3L381.1 445.3L386.0 460.9L392.5 473.5L399.9 482.8L407.4 488.4L414.4 490.5L420.0 489.1L423.7 484.6L424.8 477.4L422.8 468.2L417.6 457.6L409.0 446.4L397.0 435.3L381.8 425.0L364.0 416.3L343.9 409.6L322.4 405.4L300.0 404.0L277.6 405.4L256.1 409.6L236.0 416.3L218.2 425.0L203.0 435.3L191.0 446.4L182.4 457.6L177.2 468.2L175.2 477.4L176.3 484.6L180.0 489.1L185.6 490.5L192.6 488.4L200.1 482.8L207.5 473.5L214.0 460.9L218.9 445.3L221.7 427.3L222.0 407.4L219.5 386.4L214.1 365.1L205.9 344.3L195.1 324.7L182.1 306.9L167.6 291.6L152.1 279.2L136.3 269.9L121.2 263.7L107.3 260.7L95.5 260.5L86.3 262.7L80.3 266.7L77.8 271.9L78.9 277.6L83.8 283.0L92.1 287.4L103.6 290.2L117.8 290.7L134.0 288.5L151.5 283.4L169.6 275.2L187.6 264.0L204.5 250.0L219.9 233.7L233.0 215.6L243.5 196.3L251.2 176.6L255.8 157.3L257.6 139.1L256.7 122.7L253.5 108.9L248.7 98.1L242.8 90.8L236.6 87.0L230.8 87.0L226.1 90.4L223.3 97.1L222.9 106.5L225.3 118.1L230.9 131.1L239.7 144.9L251.8 158.6L267.0 171.5L284.7 182.9L304.6 192.3L325.9 199.3L347.9 203.4L369.8 204.8L390.9 203.3L410.3 199.3L427.5 193.1L441.9 185.3L453.1 176.6L460.8 167.6L465.0 159.2L465.7 151.9L463.3 146.7L458.2 143.9L450.9 144.2L442.2 147.8L432.8 154.9L423.4 165.5L414.7 179.4L407.5 196.2L402.2 215.4L399.4 236.3L399.4 258.3L402.2 280.5L407.7 302.2L415.9 322.6L426.2 341.0L438.1 357.0L451.0 369.9L464.2 379.6L476.9 386.0L488.3 389.1L497.7 389.3L504.5 386.9L508.3 382.5L508.6 376.7L505.2 370.2L498.2 363.9L487.8 358.4L474.2 354.4L457.9 352.4L439.7 353.0L420.1 356.5L399.9 362.9L380.0 372.2L361.1 384.1L343.9 398.4L328.9 414.5L316.6 431.7L307.3 449.2L301.1 466.4L297.9 482.5L297.5 496.6L299.5 508.3L303.4 516.9L308.5 522.1L314.1 523.6L319.4 521.4L323.8 515.6L326.6 506.6L327.1 494.8L325.0 480.8L319.8 465.2L311.5 449.0L300.0 432.7L285.7 417.2L268.8 403.1L249.9 391.1L229.6 381.6L208.7 374.9L187.9 371.1L168.1 370.1L149.9 371.8L134.0 375.8L121.0 381.5L111.3 388.2L105.2 395.4L102.7 402.2L103.7 407.9L108.0 411.8L115.1 413.4L124.4 412.0L135.3 407.5L147.1 399.6L158.9 388.3L170.1 373.8L180.0 356.5L187.9 337.0L193.4 315.7L196.2 293.5L196.2 271.1L193.4 249.3L188.0 228.9L180.4 210.5L171.1 194.7L160.8 182.1L150.1 172.7L139.8 166.8L130.7 164.3L123.5 165.0L118.8 168.3L117.0 173.9L118.7 180.9L123.9 188.8L132.6 196.8L144.8 204.0L160.1 209.9L177.9 213.9L197.7 215.4L218.8 214.3L240.4 210.2L261.7 203.3L282.0 193.8L300.5 181.9L316.7 168.4L330.1 153.7L340.4 138.5L347.4 123.8L351.3 110.2L352.3 98.4L350.7 89.1L347.0 82.8L342.0 80.0L336.2 80.8L330.5 85.2L325.6 93.3L322.2 104.6L320.8 118.7L321.9 135.0L325.9 152.9L333.0 171.5L343.0 190.0L355.9 207.9L371.2 224.2L388.5 238.5L407.0 250.2L426.2 259.0L445.2 264.9L463.3 267.8L479.6 267.9L493.6 265.6L504.7 261.5L512.4 256.0L516.5 250.1L517.0 244.3L513.8 239.4L507.3 236.2L497.9 235.2L486.2 236.8L472.9 241.6L458.6 249.6L444.2 260.8L430.3 275.1L417.8 292.1L407.2 311.3L398.9 332.1L393.4 353.8L390.7 375.6L390.8 396.8L393.6 416.4L398.7 434.0L405.5 448.9L413.5 460.6L422.0 468.8L430.2 473.5L437.4 474.7L442.8 472.6L445.8 467.7L446.0 460.4L442.9 451.5L436.4 441.6L426.5 431.6L413.1 422.0L396.8 413.8L378.0 407.3L357.3 403.2L335.4 401.8L313.0 403.2L291.0 407.4L270.2 414.2L251.1 423.4L234.5 434.3L220.8 446.3L210.2 458.9L203.1 471.1L199.2 482.3L198.5 491.7L200.4 498.7L204.6 502.7L210.4 503.3L217.0 500.4L223.8 493.8L229.9 483.8L234.8 470.4L237.8 454.3L238.3 436.1L236.1 416.3L231.0 395.8L223.0 375.4L212.2 355.7L199.0 337.6L183.9 321.6L167.6 308.3L150.6 297.9L133.8 290.6L118.0 286.4L103.9 285.1L92.2 286.4L83.3 289.7L77.9 294.5L76.0 300.0L77.9 305.5L83.3 310.3L92.2 313.6L103.9 314.9L118.0 313.6L133.8 309.4L150.6 302.1L167.6 291.7L183.9 278.4L199.0 262.4L212.2 244.3L223.0 224.6L231.0 204.2L236.1 183.7L238.3 163.9L237.8 145.7L234.8 129.6L229.9 116.2L223.8 106.2L217.0 99.6L210.4 96.7L204.6 97.3L200.4 101.3L198.5 108.3L199.2 117.7L203.1 128.9L210.2 141.1L220.8 153.7L234.5 165.7L251.1 176.6L270.2 185.8L291.0 192.6L313.0 196.8L335.4 198.2L357.3 196.8L378.0 192.7L396.8 186.2L413.1 178.0L426.5 168.4L436.4 158.4L442.9 148.5L446.0 139.6L445.8 132.3L442.8 127.4L437.4 125.3L430.2 126.5L422.0 131.2L413.5 139.4L405.5 151.1L398.7 166.0L393.6 183.6L390.8 203.2L390.7 224.4L393.4 246.2L398.9 267.9L407.2 288.7L417.8 307.9L430.3 324.9L444.2 339.2L458.6 350.4L472.9 358.4L486.2 363.2L497.9 364.8L507.3 363.8L513.8 360.6L517.0 355.7L516.5 349.9L512.4 344.0L504.7 338.5L493.6 334.4L479.6 332.1L463.3 332.2L445.2 335.1L426.2 341.0L407.0 349.8L388.5 361.5L371.2 375.8L355.9 392.1L343.0 410.0L333.0 428.5L325.9 447.1L321.9 465.0L320.8 481.3L322.2 495.4L325.6 506.7L330.5 514.8L336.2 519.2L342.0 520.0L347.0 517.2L350.7 510.9L352.3 501.6L351.3 489.8L347.4 476.2L340.4 461.5L330.1 446.3L316.7 431.6L300.5 418.1L282.0 406.2L261.7 396.7L240.4 389.8L218.8 385.7L197.7 384.6L177.9 386.1L160.1 390.1L144.8 396.0L132.6 403.2L123.9 411.2L118.7 419.1L117.0 426.1L118.8 431.7L123.5 435.0L130.7 435.7L139.8 433.2L150.1 427.3L160.8 417.9L171.1 405.3L180.4 389.5L188.0 371.1L193.4 350.7L196.2 328.9L196.2 306.5L193.4 284.3L187.9 263.0L180.0 243.5L170.1 226.2L158.9 211.7L147.1 200.4L135.3 192.5L124.4 188.0L115.1 186.6L108.0 188.2L103.7 192.1L102.7 197.8L105.2 204.6L111.3 211.8L121.0 218.5L134.0 224.2L149.9 228.2L168.1 229.9L187.9 228.9L208.7 225.1L229.6 218.4L249.9 208.9L268.8 196.9L285.7 182.8L300.0 167.3L311.5 151.0L319.8 134.8L325.0 119.2L327.1 105.2L326.6 93.4L323.8 84.4L319.4 78.6L314.1 76.4L308.5 77.9L303.4 83.1L299.5 91.7L297.5 103.4L297.9 117.5L301.1 133.6L307.3 150.8L316.6 168.3L328.9 185.5L343.9 201.6L361.1 215.9L380.0 227.8L399.9 237.1L420.1 243.5L439.7 247.0L457.9 247.6L474.2 245.6L487.8 241.6L498.2 236.1L505.2 229.8L508.6 223.3L508.3 217.5L504.5 213.1L497.7 210.7L488.3 210.9L476.9 214.0L464.2 220.4L451.0 230.1L438.1 243.0L426.2 259.0L415.9 277.4L407.7 297.8L402.2 319.5L399.4 341.7L399.4 363.7L402.2 384.6L407.5 403.8L414.7 420.6L423.4 434.5L432.8 445.1L442.2 452.2L450.9 455.8L458.2 456.1L463.3 453.3L465.7 448.1L465.0 440.8L460.8 432.4L453.1 423.4L441.9 414.7L427.5 406.9L410.3 400.7L390.9 396.7L369.8 395.2L347.9 396.6L325.9 400.7L304.6 407.7L284.7 417.1L267.0 428.5L251.8 441.4L239.7 455.1L230.9 468.9L225.3 481.9L222.9 493.5L223.3 502.9L226.1 509.6L230.8 513.0L236.6 513.0L242.8 509.2L248.7 501.9L253.5 491.1L256.7 477.3L257.6 460.9L255.8 442.7L251.2 423.4L243.5 403.7L233.0 384.4L219.9 366.3L204.5 350.0L187.6 336.0L169.6 324.8L151.5 316.6L134.0 311.5L117.8 309.3L103.6 309.8L92.1 312.6L83.8 317.0L78.9 322.4L77.8 328.1L80.3 333.3L86.3 337.3L95.5 339.5L107.3 339.3L121.2 336.3L136.3 330.1L152.1 320.8L167.6 308.4L182.1 293.1L195.1 275.3L205.9 255.7L214.1 234.9L219.5 213.6L222.0 192.6L221.7 172.7L218.9 154.7L214.0 139.1L207.5 126.5L200.1 117.2L192.6 111.6L185.6 109.5L180.0 110.9L176.3 115.4L175.2 122.6L177.2 131.8L182.4 142.4L191.0 153.6L203.0 164.7L218.2 175.0L236.0 183.7L256.1 190.4L277.6 194.6L300.0 196.0L322.4 194.6L343.9 190.4L364.0 183.7L381.8 175.0L397.0 164.7L409.0 153.6L417.6 142.4L422.8 131.8L424.8 122.6L423.7 115.4L420.0 110.9L414.4 109.5L407.4 111.6L399.9 117.2L392.5 126.5L386.0 139.1L381.1 154.7L378.3 172.7L378.0 192.6L380.5 213.6L385.9 234.9L394.1 255.7L404.9 275.3L417.9 293.1L432.4 308.4L447.9 320.8L463.7 330.1L478.8 336.3L492.7 339.3L504.5 339.5L513.7 337.3L519.7 333.3L522.2 328.1L521.1 322.4L516.2 317.0L507.9 312.6L496.4 309.8L482.2 309.3L466.0 311.5L448.5 316.6L430.4 324.8L412.4 336.0L395.5 350.0L380.1 366.3L367.0 384.4L356.5 403.7L348.8 423.4L344.2 442.7L342.4 460.9L343.3 477.3L346.5 491.1L351.3 501.9L357.2 509.2L363.4 513.0L369.2 513.0L373.9 509.6L376.7 502.9L377.1 493.5L374.7 481.9L369.1 468.9L360.3 455.1L348.2 441.4L333.0 428.5L315.3 417.1L295.4 407.7L274.1 400.7L252.1 396.6L230.2 395.2L209.1 396.7L189.7 400.7L172.5 406.9L158.1 414.7L146.9 423.4L139.2 432.4L135.0 440.8L134.3 448.1L136.7 453.3L141.8 456.1L149.1 455.8L157.8 452.2L167.2 445.1L176.6 434.5L185.3 420.6L192.5 403.8L197.8 384.6L200.6 363.7L200.6 341.7L197.8 319.5L192.3 297.8L184.1 277.4L173.8 259.0L161.9 243.0L149.0 230.1L135.8 220.4L123.1 214.0L111.7 210.9L102.3 210.7L95.5 213.1L91.7 217.5L91.4 223.3L94.8 229.8L101.8 236.1L112.2 241.6L125.8 245.6L142.1 247.6L160.3 247.0L179.9 243.5L200.1 237.1L220.0 227.8L238.9 215.9L256.1 201.6L271.1 185.5L283.4 168.3L292.7 150.8L298.9 133.6L302.1 117.5L302.5 103.4L300.5 91.7L296.6 83.1L291.5 77.9L285.9 76.4L280.6 78.6L276.2 84.4L273.4 93.4L272.9 105.2L275.0 119.2L280.2 134.8L288.5 151.0L300.0 167.3L314.3 182.8L331.2 196.9L350.1 208.9L370.4 218.4L391.3 225.1L412.1 228.9L431.9 229.9L450.1 228.2L466.0 224.2L479.0 218.5L488.7 211.8L494.8 204.6L497.3 197.8L496.3 192.1L492.0 188.2L484.9 186.6L475.6 188.0L464.7 192.5L452.9 200.4L441.1 211.7L429.9 226.2L420.0 243.5L412.1 263.0L406.6 284.3L403.8 306.5L403.8 328.9L406.6 350.7L412.0 371.1L419.6 389.5L428.9 405.3L439.2 417.9L449.9 427.3L460.2 433.2L469.3 435.7L476.5 435.0L481.2 431.7L483.0 426.1L481.3 419.1L476.1 411.2L467.4 403.2L455.2 396.0L439.9 390.1L422.1 386.1L402.3 384.6L381.2 385.7L359.6 389.8L338.3 396.7L318.0 406.2L299.5 418.1L283.3 431.6L269.9 446.3L259.6 461.5L252.6 476.2L248.7 489.8L247.7 501.6L249.3 510.9L253.0 517.2L258.0 520.0L263.8 519.2L269.5 514.8L274.4 506.7L277.8 495.4L279.2 481.3L278.1 465.0L274.1 447.1L267.0 428.5L257.0 410.0L244.1 392.1L228.8 375.8L211.5 361.5L193.0 349.8L173.8 341.0L154.8 335.1L136.7 332.2L120.4 332.1L106.4 334.4L95.3 338.5L87.6 344.0L83.5 349.9L83.0 355.7L86.2 360.6L92.7 363.8L102.1 364.8L113.8 363.2L127.1 358.4L141.4 350.4L155.8 339.2L169.7 324.9L182.2 307.9L192.8 288.7L201.1 267.9L206.6 246.2L209.3 224.4L209.2 203.2L206.4 183.6L201.3 166.0L194.5 151.1L186.5 139.4L178.0 131.2L169.8 126.5L162.6 125.3L157.2 127.4L154.2 132.3L154.0 139.6L157.1 148.5L163.6 158.4L173.5 168.4L186.9 178.0L203.2 186.2L222.0 192.7L242.7 196.8L264.6 198.2L287.0 196.8L309.0 192.6L329.8 185.8L348.9 176.6L365.5 165.7L379.2 153.7L389.8 141.1L396.9 128.9L400.8 117.7L401.5 108.3L399.6 101.3L395.4 97.3L389.6 96.7L383.0 99.6L376.2 106.2L370.1 116.2L365.2 129.6L362.2 145.7L361.7 163.9L363.9 183.7L369.0 204.2L377.0 224.6L387.8 244.3L401.0 262.4L416.1 278.4L432.4 291.7L449.4 302.1L466.2 309.4L482.0 313.6L496.1 314.9L507.8 313.6L516.7 310.3L522.1 305.5L524.0 300.0Z" stroke="#B36B7C" stroke-width="0.4"/>
  <path d="M498.0 300.0L497.4 295.1L495.8 290.3L493.0 285.6L489.1 281.2L484.2 277.2L478.3 273.6L471.5 270.5L463.8 268.0L455.2 266.1L446.0 265.0L436.0 264.5L425.6 264.9L414.6 266.1L403.3 268.1L391.7 271.0L380.0 274.7L368.1 279.3L356.4 284.7L344.7 290.9L333.3 297.9L322.2 305.5L311.5 313.9L301.3 322.8L291.7 332.3L282.7 342.2L274.4 352.5L266.9 363.1L260.2 373.8L254.3 384.7L249.3 395.5L245.2 406.2L242.0 416.8L239.7 427.0L238.2 436.8L237.7 446.1L237.9 454.9L238.9 462.9L240.7 470.2L243.1 476.7L246.1 482.2L249.7 486.9L253.7 490.5L258.2 493.0L262.9 494.5L267.8 494.9L272.9 494.1L278.0 492.3L283.0 489.3L287.9 485.2L292.5 480.1L296.8 474.0L300.7 466.9L304.2 458.8L307.1 449.9L309.3 440.3L310.9 429.9L311.8 418.9L312.0 407.4L311.3 395.5L309.8 383.3L307.6 370.8L304.5 358.2L300.6 345.6L295.9 333.1L290.4 320.7L284.2 308.7L277.4 297.0L269.9 285.8L261.8 275.1L253.2 265.0L244.3 255.7L235.0 247.1L225.4 239.3L215.7 232.3L205.9 226.3L196.2 221.2L186.6 217.0L177.2 213.7L168.1 211.4L159.5 210.0L151.4 209.5L143.9 209.8L137.1 211.0L131.1 212.9L125.9 215.6L121.6 218.9L118.2 222.7L115.9 227.1L114.6 231.9L114.4 237.0L115.3 242.3L117.3 247.8L120.3 253.4L124.5 258.9L129.7 264.3L136.0 269.5L143.2 274.3L151.4 278.8L160.5 282.9L170.3 286.4L180.9 289.3L192.2 291.6L204.0 293.2L216.3 294.1L229.0 294.2L242.0 293.5L255.1 292.0L268.3 289.8L281.4 286.7L294.4 282.9L307.2 278.3L319.6 273.1L331.6 267.1L343.1 260.6L354.0 253.6L364.2 246.0L373.6 238.1L382.3 229.9L390.0 221.4L396.9 212.8L402.8 204.1L407.8 195.5L411.8 187.1L414.8 178.9L416.8 171.0L417.8 163.6L418.0 156.7L417.2 150.4L415.6 144.8L413.1 139.9L409.9 135.9L406.1 132.8L401.6 130.7L396.7 129.5L391.2 129.3L385.5 130.3L379.5 132.2L373.3 135.3L367.0 139.4L360.7 144.6L354.6 150.8L348.6 158.0L343.0 166.1L337.7 175.2L332.8 185.1L328.4 195.7L324.7 207.0L321.5 218.9L319.0 231.4L317.3 244.2L316.3 257.4L316.0 270.8L316.5 284.2L317.9 297.7L319.9 311.1L322.8 324.3L326.3 337.2L330.6 349.7L335.5 361.7L341.0 373.2L347.0 383.9L353.5 394.0L360.3 403.2L367.5 411.5L374.9 419.0L382.4 425.5L390.0 430.9L397.5 435.4L404.8 438.9L411.9 441.3L418.7 442.7L425.0 443.1L430.8 442.6L436.0 441.1L440.6 438.7L444.3 435.5L447.3 431.6L449.4 426.9L450.5 421.6L450.7 415.8L449.9 409.5L448.1 402.8L445.2 395.9L441.3 388.8L436.3 381.6L430.4 374.4L423.4 367.3L415.5 360.4L406.8 353.8L397.1 347.5L386.7 341.6L375.6 336.3L363.8 331.6L351.6 327.4L338.8 324.0L325.7 321.2L312.4 319.2L298.9 318.0L285.3 317.5L271.8 317.8L258.5 318.9L245.4 320.7L232.7 323.3L220.4 326.6L208.7 330.4L197.7 334.9L187.3 339.9L177.8 345.4L169.1 351.3L161.3 357.5L154.5 363.8L148.7 370.4L143.9 376.9L140.2 383.5L137.6 389.8L136.0 396.0L135.4 401.8L135.9 407.2L137.4 412.1L139.8 416.4L143.2 420.0L147.4 423.0L152.3 425.1L158.0 426.4L164.4 426.7L171.3 426.2L178.6 424.6L186.3 422.1L194.3 418.6L202.5 414.1L210.8 408.6L219.0 402.2L227.2 394.8L235.2 386.5L242.8 377.4L250.2 367.5L257.0 356.8L263.4 345.5L269.2 333.6L274.3 321.3L278.8 308.6L282.6 295.5L285.6 282.3L287.8 269.0L289.2 255.7L289.9 242.5L289.7 229.5L288.8 216.9L287.2 204.7L284.9 193.0L281.9 181.9L278.3 171.4L274.2 161.8L269.6 153.0L264.5 145.1L259.2 138.2L253.7 132.3L248.0 127.4L242.2 123.6L236.5 120.9L230.9 119.3L225.5 118.7L220.4 119.3L215.7 120.8L211.5 123.4L207.8 127.0L204.8 131.5L202.5 136.9L200.9 143.0L200.2 149.9L200.3 157.4L201.3 165.5L203.3 174.0L206.2 182.8L210.0 192.0L214.8 201.3L220.5 210.7L227.2 220.1L234.7 229.4L243.1 238.4L252.3 247.2L262.2 255.5L272.7 263.4L283.9 270.8L295.6 277.6L307.7 283.7L320.1 289.1L332.8 293.8L345.6 297.7L358.4 300.8L371.2 303.1L383.7 304.6L396.1 305.3L408.0 305.2L419.5 304.3L430.3 302.8L440.6 300.5L450.1 297.6L458.8 294.2L466.6 290.3L473.4 285.9L479.3 281.2L484.1 276.3L487.8 271.2L490.5 266.0L492.0 260.8L492.5 255.7L491.8 250.8L490.0 246.1L487.2 241.9L483.3 238.1L478.5 234.8L472.8 232.1L466.1 230.1L458.8 228.8L450.7 228.3L441.9 228.6L432.7 229.8L423.0 231.8L412.9 234.8L402.6 238.7L392.1 243.4L381.6 249.1L371.2 255.6L360.9 263.0L350.8 271.2L341.0 280.1L331.7 289.6L322.8 299.8L314.6 310.6L306.9 321.8L299.9 333.3L293.7 345.2L288.3 357.2L283.6 369.3L279.8 381.4L276.8 393.4L274.7 405.1L273.4 416.5L272.9 427.5L273.2 438.0L274.2 447.9L275.9 457.0L278.3 465.4L281.3 473.0L284.8 479.6L288.8 485.3L293.1 489.9L297.7 493.5L302.6 496.0L307.5 497.4L312.4 497.6L317.3 496.7L322.0 494.8L326.5 491.7L330.6 487.6L334.3 482.4L337.5 476.3L340.2 469.3L342.2 461.4L343.5 452.8L344.1 443.5L343.9 433.5L342.9 423.1L341.0 412.3L338.3 401.1L334.7 389.7L330.2 378.2L324.9 366.7L318.8 355.3L311.9 344.0L304.2 333.1L295.9 322.5L286.9 312.3L277.3 302.7L267.3 293.7L256.8 285.4L246.0 277.7L235.0 270.9L223.8 264.9L212.6 259.7L201.5 255.4L190.5 252.0L179.8 249.5L169.5 247.8L159.6 247.0L150.2 246.9L141.5 247.7L133.6 249.3L126.4 251.5L120.1 254.3L114.7 257.7L110.3 261.5L107.0 265.8L104.7 270.4L103.6 275.2L103.5 280.1L104.6 285.1L106.7 290.1L110.0 294.9L114.4 299.5L119.8 303.8L126.2 307.8L133.5 311.2L141.8 314.1L150.8 316.5L160.6 318.1L171.0 319.1L182.0 319.3L193.5 318.7L205.4 317.3L217.5 315.1L229.8 312.0L242.2 308.1L254.5 303.4L266.7 298.0L278.7 291.7L290.4 284.8L301.6 277.2L312.3 269.0L322.5 260.3L332.0 251.1L340.8 241.6L348.8 231.8L355.9 221.7L362.2 211.6L367.7 201.5L372.2 191.4L375.8 181.6L378.4 172.0L380.2 162.8L381.0 154.1L381.0 146.0L380.2 138.6L378.6 131.8L376.3 125.9L373.3 120.9L369.8 116.8L365.7 113.7L361.2 111.7L356.3 110.7L351.2 110.8L345.9 112.0L340.6 114.3L335.2 117.8L330.0 122.3L324.9 127.8L320.2 134.4L315.8 141.9L311.8 150.4L308.3 159.7L305.4 169.7L303.2 180.5L301.6 191.9L300.8 203.8L300.7 216.1L301.4 228.8L302.9 241.7L305.1 254.7L308.2 267.7L312.1 280.6L316.7 293.4L322.1 305.8L328.1 317.9L334.8 329.5L342.0 340.6L349.7 351.0L357.9 360.7L366.4 369.6L375.2 377.7L384.1 384.9L393.1 391.2L402.1 396.6L411.0 401.0L419.7 404.5L428.1 406.9L436.1 408.5L443.5 409.0L450.4 408.7L456.7 407.6L462.2 405.6L466.8 402.9L470.6 399.4L473.5 395.4L475.4 390.8L476.2 385.8L476.0 380.3L474.8 374.7L472.4 368.8L469.0 362.8L464.5 356.8L458.9 350.8L452.3 345.1L444.8 339.6L436.3 334.5L426.9 329.7L416.8 325.5L405.9 321.8L394.3 318.8L382.3 316.4L369.7 314.7L356.8 313.7L343.6 313.5L330.2 314.1L316.8 315.5L303.4 317.7L290.1 320.6L277.1 324.3L264.5 328.6L252.3 333.7L240.6 339.3L229.6 345.5L219.2 352.2L209.6 359.3L200.8 366.7L192.9 374.4L186.0 382.2L180.0 390.1L175.0 398.0L171.0 405.8L168.0 413.3L166.0 420.6L165.0 427.4L165.0 433.7L165.9 439.5L167.7 444.6L170.4 449.0L173.8 452.6L177.9 455.3L182.7 457.0L188.1 457.9L193.9 457.7L200.2 456.5L206.7 454.2L213.4 450.9L220.3 446.6L227.1 441.2L234.0 434.8L240.6 427.4L247.0 419.1L253.1 409.9L258.7 399.9L263.9 389.2L268.5 377.7L272.5 365.7L275.9 353.2L278.5 340.2L280.4 327.0L281.6 313.6L282.0 300.0L281.6 286.4L280.4 273.0L278.5 259.8L275.9 246.8L272.5 234.3L268.5 222.3L263.9 210.8L258.7 200.1L253.1 190.1L247.0 180.9L240.6 172.6L234.0 165.2L227.1 158.8L220.3 153.4L213.4 149.1L206.7 145.8L200.2 143.5L193.9 142.3L188.1 142.1L182.7 143.0L177.9 144.7L173.8 147.4L170.4 151.0L167.7 155.4L165.9 160.5L165.0 166.3L165.0 172.6L166.0 179.4L168.0 186.7L171.0 194.2L175.0 202.0L180.0 209.9L186.0 217.8L192.9 225.6L200.8 233.3L209.6 240.7L219.2 247.8L229.6 254.5L240.6 260.7L252.3 266.3L264.5 271.4L277.1 275.7L290.1 279.4L303.4 282.3L316.8 284.5L330.2 285.9L343.6 286.5L356.8 286.3L369.7 285.3L382.3 283.6L394.3 281.2L405.9 278.2L416.8 274.5L426.9 270.3L436.3 265.5L444.8 260.4L452.3 254.9L458.9 249.2L464.5 243.2L469.0 237.2L472.4 231.2L474.8 225.3L476.0 219.7L476.2 214.2L475.4 209.2L473.5 204.6L470.6 200.6L466.8 197.1L462.2 194.4L456.7 192.4L450.4 191.3L443.5 191.0L436.1 191.5L428.1 193.1L419.7 195.5L411.0 199.0L402.1 203.4L393.1 208.8L384.1 215.1L375.2 222.3L366.4 230.4L357.9 239.3L349.7 249.0L342.0 259.4L334.8 270.5L328.1 282.1L322.1 294.2L316.7 306.6L312.1 319.4L308.2 332.3L305.1 345.3L302.9 358.3L301.4 371.2L300.7 383.9L300.8 396.2L301.6 408.1L303.2 419.5L305.4 430.3L308.3 440.3L311.8 449.6L315.8 458.1L320.2 465.6L324.9 472.2L330.0 477.7L335.2 482.2L340.6 485.7L345.9 488.0L351.2 489.2L356.3 489.3L361.2 488.3L365.7 486.3L369.8 483.2L373.3 479.1L376.3 474.1L378.6 468.2L380.2 461.4L381.0 454.0L381.0 445.9L380.2 437.2L378.4 428.0L375.8 418.4L372.2 408.6L367.7 398.5L362.2 388.4L355.9 378.3L348.8 368.2L340.8 358.4L332.0 348.9L322.5 339.7L312.3 331.0L301.6 322.8L290.4 315.2L278.7 308.3L266.7 302.0L254.5 296.6L242.2 291.9L229.8 288.0L217.5 284.9L205.4 282.7L193.5 281.3L182.0 280.7L171.0 280.9L160.6 281.9L150.8 283.5L141.8 285.9L133.5 288.8L126.2 292.2L119.8 296.2L114.4 300.5L110.0 305.1L106.7 309.9L104.6 314.9L103.5 319.9L103.6 324.8L104.7 329.6L107.0 334.2L110.3 338.5L114.7 342.3L120.1 345.7L126.4 348.5L133.6 350.7L141.5 352.3L150.2 353.1L159.6 353.0L169.5 352.2L179.8 350.5L190.5 348.0L201.5 344.6L212.6 340.3L223.8 335.1L235.0 329.1L246.0 322.3L256.8 314.6L267.3 306.3L277.3 297.3L286.9 287.7L295.9 277.5L304.2 266.9L311.9 256.0L318.8 244.7L324.9 233.3L330.2 221.8L334.7 210.3L338.3 198.9L341.0 187.7L342.9 176.9L343.9 166.5L344.1 156.5L343.5 147.2L342.2 138.6L340.2 130.7L337.5 123.7L334.3 117.6L330.6 112.4L326.5 108.3L322.0 105.2L317.3 103.3L312.4 102.4L307.5 102.6L302.6 104.0L297.7 106.5L293.1 110.1L288.8 114.7L284.8 120.4L281.3 127.0L278.3 134.6L275.9 143.0L274.2 152.1L273.2 162.0L272.9 172.5L273.4 183.5L274.7 194.9L276.8 206.6L279.8 218.6L283.6 230.7L288.3 242.8L293.7 254.8L299.9 266.7L306.9 278.2L314.6 289.4L322.8 300.2L331.7 310.4L341.0 319.9L350.8 328.8L360.9 337.0L371.2 344.4L381.6 350.9L392.1 356.6L402.6 361.3L412.9 365.2L423.0 368.2L432.7 370.2L441.9 371.4L450.7 371.7L458.8 371.2L466.1 369.9L472.8 367.9L478.5 365.2L483.3 361.9L487.2 358.1L490.0 353.9L491.8 349.2L492.5 344.3L492.0 339.2L490.5 334.0L487.8 328.8L484.1 323.7L479.3 318.8L473.4 314.1L466.6 309.7L458.8 305.8L450.1 302.4L440.6 299.5L430.3 297.2L419.5 295.7L408.0 294.8L396.1 294.7L383.7 295.4L371.2 296.9L358.4 299.2L345.6 302.3L332.8 306.2L320.1 310.9L307.7 316.3L295.6 322.4L283.9 329.2L272.7 336.6L262.2 344.5L252.3 352.8L243.1 361.6L234.7 370.6L227.2 379.9L220.5 389.3L214.8 398.7L210.0 408.0L206.2 417.2L203.3 426.0L201.3 434.5L200.3 442.6L200.2 450.1L200.9 457.0L202.5 463.1L204.8 468.5L207.8 473.0L211.5 476.6L215.7 479.2L220.4 480.7L225.5 481.3L230.9 480.7L236.5 479.1L242.2 476.4L248.0 472.6L253.7 467.7L259.2 461.8L264.5 454.9L269.6 447.0L274.2 438.2L278.3 428.6L281.9 418.1L284.9 407.0L287.2 395.3L288.8 383.1L289.7 370.5L289.9 357.5L289.2 344.3L287.8 331.0L285.6 317.7L282.6 304.5L278.8 291.4L274.3 278.7L269.2 266.4L263.4 254.5L257.0 243.2L250.2 232.5L242.8 222.6L235.2 213.5L227.2 205.2L219.0 197.8L210.8 191.4L202.5 185.9L194.3 181.4L186.3 177.9L178.6 175.4L171.3 173.8L164.4 173.3L158.0 173.6L152.3 174.9L147.4 177.0L143.2 180.0L139.8 183.6L137.4 187.9L135.9 192.8L135.4 198.2L136.0 204.0L137.6 210.2L140.2 216.5L143.9 223.1L148.7 229.6L154.5 236.2L161.3 242.5L169.1 248.7L177.8 254.6L187.3 260.1L197.7 265.1L208.7 269.6L220.4 273.4L232.7 276.7L245.4 279.3L258.5 281.1L271.8 282.2L285.3 282.5L298.9 282.0L312.4 280.8L325.7 278.8L338.8 276.0L351.6 272.6L363.8 268.4L375.6 263.7L386.7 258.4L397.1 252.5L406.8 246.2L415.5 239.6L423.4 232.7L430.4 225.6L436.3 218.4L441.3 211.2L445.2 204.1L448.1 197.2L449.9 190.5L450.7 184.2L450.5 178.4L449.4 173.1L447.3 168.4L444.3 164.5L440.6 161.3L436.0 158.9L430.8 157.4L425.0 156.9L418.7 157.3L411.9 158.7L404.8 161.1L397.5 164.6L390.0 169.1L382.4 174.5L374.9 181.0L367.5 188.5L360.3 196.8L353.5 206.0L347.0 216.1L341.0 226.8L335.5 238.3L330.6 250.3L326.3 262.8L322.8 275.7L319.9 288.9L317.9 302.3L316.5 315.8L316.0 329.2L316.3 342.6L317.3 355.8L319.0 368.6L321.5 381.1L324.7 393.0L328.4 404.3L332.8 414.9L337.7 424.8L343.0 433.9L348.6 442.0L354.6 449.2L360.7 455.4L367.0 460.6L373.3 464.7L379.5 467.8L385.5 469.7L391.2 470.7L396.7 470.5L401.6 469.3L406.1 467.2L409.9 464.1L413.1 460.1L415.6 455.2L417.2 449.6L418.0 443.3L417.8 436.4L416.8 429.0L414.8 421.1L411.8 412.9L407.8 404.5L402.8 395.9L396.9 387.2L390.0 378.6L382.3 370.1L373.6 361.9L364.2 354.0L354.0 346.4L343.1 339.4L331.6 332.9L319.6 326.9L307.2 321.7L294.4 317.1L281.4 313.3L268.3 310.2L255.1 308.0L242.0 306.5L229.0 305.8L216.3 305.9L204.0 306.8L192.2 308.4L180.9 310.7L170.3 313.6L160.5 317.1L151.4 321.2L143.2 325.7L136.0 330.5L129.7 335.7L124.5 341.1L120.3 346.6L117.3 352.2L115.3 357.7L114.4 363.0L114.6 368.1L115.9 372.9L118.2 377.3L121.6 381.1L125.9 384.4L131.1 387.1L137.1 389.0L143.9 390.2L151.4 390.5L159.5 390.0L168.1 388.6L177.2 386.3L186.6 383.0L196.2 378.8L205.9 373.7L215.7 367.7L225.4 360.7L235.0 352.9L244.3 344.3L253.2 335.0L261.8 324.9L269.9 314.2L277.4 303.0L284.2 291.3L290.4 279.3L295.9 266.9L300.6 254.4L304.5 241.8L307.6 229.2L309.8 216.7L311.3 204.5L312.0 192.6L311.8 181.1L310.9 170.1L309.3 159.7L307.1 150.1L304.2 141.2L300.7 133.1L296.8 126.0L292.5 119.9L287.9 114.8L283.0 110.7L278.0 107.7L272.9 105.9L267.8 105.1L262.9 105.5L258.2 107.0L253.7 109.5L249.7 113.1L246.1 117.8L243.1 123.3L240.7 129.8L238.9 137.1L237.9 145.1L237.7 153.9L238.2 163.2L239.7 173.0L242.0 183.2L245.2 193.8L249.3 204.5L254.3 215.3L260.2 226.2L266.9 236.9L274.4 247.5L282.7 257.8L291.7 267.7L301.3 277.2L311.5 286.1L322.2 294.5L333.3 302.1L344.7 309.1L356.4 315.3L368.1 320.7L380.0 325.3L391.7 329.0L403.3 331.9L414.6 333.9L425.6 335.1L436.0 335.5L446.0 335.0L455.2 333.9L463.8 332.0L471.5 329.5L478.3 326.4L484.2 322.8L489.1 318.8L493.0 314.4L495.8 309.7L497.4 304.9L498.0 300.0Z" stroke="#5B7FA6" stroke-width="0.4"/>
  <path d="M426.0 300.0L424.6 296.2L420.5 292.9L413.8 290.7L405.0 290.0L394.4 291.2L382.7 294.6L370.4 300.1L358.0 307.9L346.3 317.7L335.6 329.1L326.5 341.8L319.3 355.3L314.1 368.9L311.1 382.1L310.2 394.3L311.1 404.9L313.5 413.4L316.9 419.5L321.0 422.9L325.0 423.5L328.5 421.4L330.9 416.7L331.7 409.7L330.6 400.9L327.4 390.8L321.7 380.0L313.8 369.0L303.8 358.4L291.9 348.9L278.5 340.7L264.3 334.3L249.6 329.9L235.2 327.5L221.7 327.2L209.6 328.7L199.4 331.7L191.5 335.7L186.3 340.3L183.7 345.0L183.9 349.0L186.7 352.0L191.8 353.4L198.8 352.9L207.2 350.1L216.4 344.8L225.9 337.2L235.1 327.3L243.5 315.3L250.5 301.7L255.9 287.0L259.3 271.8L260.7 256.6L260.2 242.0L257.8 228.7L253.9 217.1L249.0 207.7L243.5 200.8L237.9 196.5L232.8 195.0L228.9 196.0L226.5 199.3L226.1 204.6L228.1 211.3L232.5 219.0L239.5 227.0L248.8 234.8L260.4 241.8L273.8 247.6L288.5 251.8L303.9 254.2L319.6 254.5L334.8 252.9L348.9 249.4L361.5 244.5L372.1 238.4L380.3 231.7L386.0 224.9L389.1 218.6L389.6 213.3L387.8 209.6L384.1 208.0L378.9 208.7L372.6 211.9L366.0 217.7L359.5 226.2L353.7 236.9L349.1 249.6L346.1 263.9L344.9 279.1L345.7 294.8L348.5 310.2L353.1 324.7L359.3 337.9L366.6 349.3L374.7 358.4L382.9 365.2L390.7 369.4L397.5 371.1L402.7 370.6L406.0 368.1L406.9 364.1L405.2 359.1L400.8 353.7L393.7 348.4L384.2 343.7L372.5 340.1L359.1 338.2L344.5 338.0L329.4 339.9L314.2 343.7L299.7 349.5L286.3 356.9L274.6 365.6L264.9 375.1L257.6 384.8L252.6 394.2L250.0 402.7L249.7 409.7L251.2 414.7L254.3 417.4L258.4 417.5L262.9 414.8L267.4 409.4L271.2 401.5L273.9 391.2L275.1 379.0L274.3 365.5L271.6 351.2L266.8 336.7L259.9 322.6L251.4 309.5L241.5 297.9L230.6 288.1L219.4 280.5L208.4 275.3L198.3 272.3L189.4 271.4L182.5 272.4L177.9 275.0L175.8 278.5L176.6 282.5L180.1 286.5L186.3 289.8L194.8 291.9L205.4 292.5L217.6 291.2L230.7 287.9L244.2 282.3L257.4 274.7L269.9 265.2L281.0 254.3L290.4 242.2L297.9 229.7L303.1 217.2L306.1 205.3L307.0 194.8L306.1 186.0L303.7 179.4L300.3 175.3L296.4 174.1L292.6 175.6L289.4 179.8L287.4 186.5L287.0 195.3L288.5 205.8L292.2 217.5L298.1 229.7L306.2 241.8L316.3 253.2L328.1 263.6L341.1 272.3L354.7 279.2L368.5 283.9L381.8 286.6L394.0 287.2L404.5 286.0L413.0 283.3L418.9 279.6L422.2 275.5L422.7 271.5L420.5 268.0L415.7 265.8L408.7 265.1L400.0 266.5L390.0 270.1L379.3 276.0L368.6 284.2L358.3 294.5L349.1 306.7L341.3 320.3L335.3 334.8L331.3 349.5L329.4 364.0L329.4 377.5L331.3 389.6L334.5 399.6L338.8 407.4L343.6 412.5L348.3 414.9L352.3 414.6L355.2 411.7L356.5 406.6L355.8 399.7L352.7 391.3L347.2 382.3L339.3 373.0L329.1 364.1L316.9 356.1L303.2 349.4L288.3 344.5L272.9 341.5L257.7 340.5L243.2 341.5L229.9 344.2L218.4 348.4L209.2 353.6L202.4 359.4L198.4 365.0L196.9 370.1L198.1 374.1L201.5 376.3L206.7 376.6L213.4 374.4L220.9 369.8L228.8 362.6L236.3 353.0L243.0 341.3L248.4 327.7L252.2 312.9L254.1 297.4L254.0 281.7L251.9 266.6L248.1 252.5L242.7 240.1L236.4 229.7L229.4 221.7L222.5 216.2L216.1 213.3L210.8 212.9L207.2 214.8L205.6 218.6L206.4 223.8L209.8 229.9L215.9 236.4L224.5 242.6L235.4 248.1L248.2 252.3L262.6 254.9L277.9 255.7L293.5 254.5L308.8 251.3L323.2 246.2L336.2 239.7L347.4 232.0L356.3 223.7L362.8 215.3L366.8 207.3L368.3 200.5L367.6 195.3L365.1 192.1L361.1 191.3L356.1 193.2L350.8 197.7L345.7 204.9L341.3 214.6L338.1 226.4L336.5 239.8L336.7 254.4L339.0 269.5L343.3 284.5L349.5 298.9L357.3 312.1L366.3 323.5L376.1 332.9L386.0 340.0L395.5 344.7L404.1 347.0L411.1 347.2L416.1 345.5L418.7 342.3L418.6 338.3L415.8 333.8L410.3 329.5L402.2 325.9L391.9 323.5L379.7 322.7L366.2 323.8L352.0 326.9L337.6 332.2L323.8 339.4L310.9 348.3L299.6 358.6L290.1 369.7L282.9 381.1L277.9 392.2L275.2 402.5L274.6 411.3L275.8 418.2L278.5 422.8L282.1 424.7L286.1 423.9L289.9 420.2L293.0 414.0L294.9 405.3L295.2 394.7L293.6 382.6L289.8 369.6L283.9 356.3L275.9 343.3L266.1 331.1L254.8 320.3L242.5 311.2L229.8 304.2L217.1 299.3L205.2 296.6L194.6 296.0L185.8 297.2L179.3 299.8L175.4 303.3L174.2 307.2L175.8 310.9L180.1 314.0L186.9 315.8L195.8 316.0L206.2 314.2L217.7 310.1L229.7 303.9L241.6 295.4L252.8 285.0L262.8 273.0L271.2 259.7L277.6 245.9L282.0 232.0L284.2 218.6L284.5 206.4L283.0 195.9L280.1 187.6L276.3 181.7L272.0 178.5L268.0 178.1L264.6 180.5L262.5 185.3L262.1 192.3L263.6 201.0L267.5 210.9L273.7 221.4L282.2 231.9L292.9 241.9L305.3 250.8L319.1 258.2L333.7 263.7L348.6 267.3L363.1 268.8L376.6 268.4L388.6 266.2L398.6 262.6L406.2 258.1L411.2 253.2L413.5 248.5L413.1 244.4L410.1 241.6L405.0 240.5L398.0 241.4L389.8 244.7L380.9 250.5L371.8 258.6L363.2 269.1L355.6 281.5L349.3 295.4L344.8 310.4L342.2 325.9L341.7 341.1L343.1 355.6L346.2 368.8L350.7 380.1L356.2 389.2L362.1 395.8L367.9 399.7L373.0 401.0L376.9 399.8L379.1 396.3L379.2 391.0L376.9 384.4L372.0 377.0L364.6 369.4L354.8 362.2L342.9 355.8L329.2 350.8L314.3 347.4L298.7 346.0L283.0 346.5L268.0 349.0L254.0 353.3L241.7 358.9L231.5 365.6L223.7 372.8L218.4 379.9L215.7 386.4L215.5 391.7L217.5 395.2L221.3 396.7L226.5 395.7L232.5 392.1L238.8 385.9L244.8 377.1L249.9 366.1L253.8 353.1L256.0 338.7L256.4 323.4L254.7 307.8L251.0 292.6L245.6 278.3L238.7 265.5L230.7 254.6L222.1 245.9L213.5 239.7L205.5 235.9L198.6 234.6L193.4 235.4L190.3 238.0L189.6 242.1L191.6 247.0L196.3 252.1L203.7 257.1L213.5 261.2L225.3 264.1L238.8 265.3L253.4 264.6L268.4 261.9L283.3 257.1L297.5 250.5L310.4 242.4L321.6 233.0L330.7 223.0L337.5 212.9L341.9 203.2L344.0 194.6L344.0 187.6L342.2 182.7L338.9 180.2L334.9 180.3L330.5 183.2L326.3 188.9L322.9 197.1L320.8 207.5L320.4 219.7L321.9 233.1L325.4 247.2L331.1 261.5L338.7 275.1L348.0 287.7L358.6 298.8L369.9 307.9L381.5 314.8L392.8 319.5L403.2 321.9L412.0 322.2L418.9 320.8L423.3 318.0L425.2 314.4L424.2 310.4L420.5 306.7L414.1 303.7L405.4 302.0L394.8 302.0L382.8 304.0L369.9 308.2L356.8 314.5L344.0 322.8L332.1 333.0L321.6 344.6L312.8 357.1L306.2 370.1L301.7 382.9L299.3 394.8L299.0 405.5L300.5 414.2L303.2 420.6L306.8 424.5L310.8 425.5L314.5 423.8L317.4 419.4L319.0 412.6L318.9 403.7L316.8 393.3L312.5 381.9L305.9 370.1L297.1 358.5L286.4 347.6L274.0 338.0L260.6 330.0L246.5 323.9L232.5 320.0L219.1 318.1L206.9 318.2L196.5 320.0L188.2 323.1L182.4 327.1L179.4 331.4L179.1 335.5L181.5 338.8L186.4 340.8L193.4 341.0L202.1 339.2L211.9 335.0L222.2 328.5L232.4 319.7L242.1 308.8L250.6 296.1L257.6 282.1L262.8 267.3L265.9 252.4L267.0 237.8L266.2 224.3L263.7 212.4L259.8 202.5L255.1 195.0L250.1 190.1L245.2 188.0L241.2 188.6L238.5 191.6L237.5 196.8L238.6 203.7L242.2 211.8L248.2 220.6L256.6 229.4L267.3 237.7L279.9 245.0L294.0 250.8L309.1 254.9L324.6 257.0L339.9 257.2L354.4 255.3L367.5 251.9L378.7 247.0L387.6 241.3L394.0 235.2L397.8 229.3L398.9 224.1L397.5 220.2L394.0 218.2L388.8 218.2L382.2 220.7L375.0 225.8L367.6 233.4L360.6 243.4L354.6 255.6L349.9 269.4L347.0 284.4L346.0 300.0L347.0 315.6L349.9 330.6L354.6 344.4L360.6 356.6L367.6 366.6L375.0 374.2L382.2 379.3L388.8 381.8L394.0 381.8L397.5 379.8L398.9 375.9L397.8 370.7L394.0 364.8L387.6 358.7L378.7 353.0L367.5 348.1L354.4 344.7L339.9 342.8L324.6 343.0L309.1 345.1L294.0 349.2L279.9 355.0L267.3 362.3L256.6 370.6L248.2 379.4L242.2 388.2L238.6 396.3L237.5 403.2L238.5 408.4L241.2 411.4L245.2 412.0L250.1 409.9L255.1 405.0L259.8 397.5L263.7 387.6L266.2 375.7L267.0 362.2L265.9 347.6L262.8 332.7L257.6 317.9L250.6 303.9L242.1 291.2L232.4 280.3L222.2 271.5L211.9 265.0L202.1 260.8L193.4 259.0L186.4 259.2L181.5 261.2L179.1 264.5L179.4 268.6L182.4 272.9L188.2 276.9L196.5 280.0L206.9 281.8L219.1 281.9L232.5 280.0L246.5 276.1L260.6 270.0L274.0 262.0L286.4 252.4L297.1 241.5L305.9 229.9L312.5 218.1L316.8 206.7L318.9 196.3L319.0 187.4L317.4 180.6L314.5 176.2L310.8 174.5L306.8 175.5L303.2 179.4L300.5 185.8L299.0 194.5L299.3 205.2L301.7 217.1L306.2 229.9L312.8 242.9L321.6 255.4L332.1 267.0L344.0 277.2L356.8 285.5L369.9 291.8L382.8 296.0L394.8 298.0L405.4 298.0L414.1 296.3L420.5 293.3L424.2 289.6L425.2 285.6L423.3 282.0L418.9 279.2L412.0 277.8L403.2 278.1L392.8 280.5L381.5 285.2L369.9 292.1L358.6 301.2L348.0 312.3L338.7 324.9L331.1 338.5L325.4 352.8L321.9 366.9L320.4 380.3L320.8 392.5L322.9 402.9L326.3 411.1L330.5 416.8L334.9 419.7L338.9 419.8L342.2 417.3L344.0 412.4L344.0 405.4L341.9 396.8L337.5 387.1L330.7 377.0L321.6 367.0L310.4 357.6L297.5 349.5L283.3 342.9L268.4 338.1L253.4 335.4L238.8 334.7L225.3 335.9L213.5 338.8L203.7 342.9L196.3 347.9L191.6 353.0L189.6 357.9L190.3 362.0L193.4 364.6L198.6 365.4L205.5 364.1L213.5 360.3L222.1 354.1L230.7 345.4L238.7 334.5L245.6 321.7L251.0 307.4L254.7 292.2L256.4 276.6L256.0 261.3L253.8 246.9L249.9 233.9L244.8 222.9L238.8 214.1L232.5 207.9L226.5 204.3L221.3 203.3L217.5 204.8L215.5 208.3L215.7 213.6L218.4 220.1L223.7 227.2L231.5 234.4L241.7 241.1L254.0 246.7L268.0 251.0L283.0 253.5L298.7 254.0L314.3 252.6L329.2 249.2L342.9 244.2L354.8 237.8L364.6 230.6L372.0 223.0L376.9 215.6L379.2 209.0L379.1 203.7L376.9 200.2L373.0 199.0L367.9 200.3L362.1 204.2L356.2 210.8L350.7 219.9L346.2 231.2L343.1 244.4L341.7 258.9L342.2 274.1L344.8 289.6L349.3 304.6L355.6 318.5L363.2 330.9L371.8 341.4L380.9 349.5L389.8 355.3L398.0 358.6L405.0 359.5L410.1 358.4L413.1 355.6L413.5 351.5L411.2 346.8L406.2 341.9L398.6 337.4L388.6 333.8L376.6 331.6L363.1 331.2L348.6 332.7L333.7 336.3L319.1 341.8L305.3 349.2L292.9 358.1L282.2 368.1L273.7 378.6L267.5 389.1L263.6 399.0L262.1 407.7L262.5 414.7L264.6 419.5L268.0 421.9L272.0 421.5L276.3 418.3L280.1 412.4L283.0 404.1L284.5 393.6L284.2 381.4L282.0 368.0L277.6 354.1L271.2 340.3L262.8 327.0L252.8 315.0L241.6 304.6L229.7 296.1L217.7 289.9L206.2 285.8L195.8 284.0L186.9 284.2L180.1 286.0L175.8 289.1L174.2 292.8L175.4 296.7L179.3 300.2L185.8 302.8L194.6 304.0L205.2 303.4L217.1 300.7L229.8 295.8L242.5 288.8L254.8 279.7L266.1 268.9L275.9 256.7L283.9 243.7L289.8 230.4L293.6 217.4L295.2 205.3L294.9 194.7L293.0 186.0L289.9 179.8L286.1 176.1L282.1 175.3L278.5 177.2L275.8 181.8L274.6 188.7L275.2 197.5L277.9 207.8L282.9 218.9L290.1 230.3L299.6 241.4L310.9 251.7L323.8 260.6L337.6 267.8L352.0 273.1L366.2 276.2L379.7 277.3L391.9 276.5L402.2 274.1L410.3 270.5L415.8 266.2L418.6 261.7L418.7 257.7L416.1 254.5L411.1 252.8L404.1 253.0L395.5 255.3L386.0 260.0L376.1 267.1L366.3 276.5L357.3 287.9L349.5 301.1L343.3 315.5L339.0 330.5L336.7 345.6L336.5 360.2L338.1 373.6L341.3 385.4L345.7 395.1L350.8 402.3L356.1 406.8L361.1 408.7L365.1 407.9L367.6 404.7L368.3 399.5L366.8 392.7L362.8 384.7L356.3 376.3L347.4 368.0L336.2 360.3L323.2 353.8L308.8 348.7L293.5 345.5L277.9 344.3L262.6 345.1L248.2 347.7L235.4 351.9L224.5 357.4L215.9 363.6L209.8 370.1L206.4 376.2L205.6 381.4L207.2 385.2L210.8 387.1L216.1 386.7L222.5 383.8L229.4 378.3L236.4 370.3L242.7 359.9L248.1 347.5L251.9 333.4L254.0 318.3L254.1 302.6L252.2 287.1L248.4 272.3L243.0 258.7L236.3 247.0L228.8 237.4L220.9 230.2L213.4 225.6L206.7 223.4L201.5 223.7L198.1 225.9L196.9 229.9L198.4 235.0L202.4 240.6L209.2 246.4L218.4 251.6L229.9 255.8L243.2 258.5L257.7 259.5L272.9 258.5L288.3 255.5L303.2 250.6L316.9 243.9L329.1 235.9L339.3 227.0L347.2 217.7L352.7 208.7L355.8 200.3L356.5 193.4L355.2 188.3L352.3 185.4L348.3 185.1L343.6 187.5L338.8 192.6L334.5 200.4L331.3 210.4L329.4 222.5L329.4 236.0L331.3 250.5L335.3 265.2L341.3 279.7L349.1 293.3L358.3 305.5L368.6 315.8L379.3 324.0L390.0 329.9L400.0 333.5L408.7 334.9L415.7 334.2L420.5 332.0L422.7 328.5L422.2 324.5L418.9 320.4L413.0 316.7L404.5 314.0L394.0 312.8L381.8 313.4L368.5 316.1L354.7 320.8L341.1 327.7L328.1 336.4L316.3 346.8L306.2 358.2L298.1 370.3L292.2 382.5L288.5 394.2L287.0 404.7L287.4 413.5L289.4 420.2L292.6 424.4L296.4 425.9L300.3 424.7L303.7 420.6L306.1 414.0L307.0 405.2L306.1 394.7L303.1 382.8L297.9 370.3L290.4 357.8L281.0 345.7L269.9 334.8L257.4 325.3L244.2 317.7L230.7 312.1L217.6 308.8L205.4 307.5L194.8 308.1L186.3 310.2L180.1 313.5L176.6 317.5L175.8 321.5L177.9 325.0L182.5 327.6L189.4 328.6L198.3 327.7L208.4 324.7L219.4 319.5L230.6 311.9L241.5 302.1L251.4 290.5L259.9 277.4L266.8 263.3L271.6 248.8L274.3 234.5L275.1 221.0L273.9 208.8L271.2 198.5L267.4 190.6L262.9 185.2L258.4 182.5L254.3 182.6L251.2 185.3L249.7 190.3L250.0 197.3L252.6 205.8L257.6 215.2L264.9 224.9L274.6 234.4L286.3 243.1L299.7 250.5L314.2 256.3L329.4 260.1L344.5 262.0L359.1 261.8L372.5 259.9L384.2 256.3L393.7 251.6L400.8 246.3L405.2 240.9L406.9 235.9L406.0 231.9L402.7 229.4L397.5 228.9L390.7 230.6L382.9 234.8L374.7 241.6L366.6 250.7L359.3 262.1L353.1 275.3L348.5 289.8L345.7 305.2L344.9 320.9L346.1 336.1L349.1 350.4L353.7 363.1L359.5 373.8L366.0 382.3L372.6 388.1L378.9 391.3L384.1 392.0L387.8 390.4L389.6 386.7L389.1 381.4L386.0 375.1L380.3 368.3L372.1 361.6L361.5 355.5L348.9 350.6L334.8 347.1L319.6 345.5L303.9 345.8L288.5 348.2L273.8 352.4L260.4 358.2L248.8 365.2L239.5 373.0L232.5 381.0L228.1 388.7L226.1 395.4L226.5 400.7L228.9 404.0L232.8 405.0L237.9 403.5L243.5 399.2L249.0 392.3L253.9 382.9L257.8 371.3L260.2 358.0L260.7 343.4L259.3 328.2L255.9 313.0L250.5 298.3L243.5 284.7L235.1 272.7L225.9 262.8L216.4 255.2L207.2 249.9L198.8 247.1L191.8 246.6L186.7 248.0L183.9 251.0L183.7 255.0L186.3 259.7L191.5 264.3L199.4 268.3L209.6 271.3L221.7 272.8L235.2 272.5L249.6 270.1L264.3 265.7L278.5 259.3L291.9 251.1L303.8 241.6L313.8 231.0L321.7 220.0L327.4 209.2L330.6 199.1L331.7 190.3L330.9 183.3L328.5 178.6L325.0 176.5L321.0 177.1L316.9 180.5L313.5 186.6L311.1 195.1L310.2 205.7L311.1 217.9L314.1 231.1L319.3 244.7L326.5 258.2L335.6 270.9L346.3 282.3L358.0 292.1L370.4 299.9L382.7 305.4L394.4 308.8L405.0 310.0L413.8 309.3L420.5 307.1L424.6 303.8L426.0 300.0Z" stroke="#B36B7C" stroke-width="0.35"/>
</svg>
